<svg width="14" height="14" viewBox="0 0 14 14" fill="none" xmlns="http://www.w3.org/2000/svg">
<path d="M9.17177 8.72318C9.17177 8.55049 9.09892 8.45551 8.98613 8.38752C8.87281 8.32276 8.73573 8.31467 8.54902 8.31467H7.71634V9.83648H8.0806V9.28226H8.46915C8.59866 9.28226 8.67961 9.29521 8.7271 9.34971C8.79186 9.41987 8.78322 9.55478 8.78322 9.64652V9.8354H9.13939V9.53589C9.13831 9.40098 9.13022 9.33298 9.08111 9.25743C9.04873 9.21426 8.98397 9.1603 8.90303 9.13116L8.91382 9.12684C9.01096 9.08798 9.17285 8.96656 9.17285 8.72372L9.17177 8.72318ZM8.70228 8.94282L8.68717 8.94174C8.6386 8.97034 8.58193 8.97304 8.50908 8.97304H8.07197V8.63306H8.51664C8.5814 8.63306 8.64615 8.63306 8.69472 8.66004C8.74761 8.68594 8.77891 8.73937 8.77567 8.79765C8.77567 8.86241 8.75138 8.91368 8.70336 8.94336L8.70228 8.94282ZM11.4825 9.51053H10.7826V9.83432H11.4863C11.8511 9.83432 12.053 9.68429 12.053 9.35727C12.053 9.20617 12.0173 9.11551 11.952 9.04319C11.8695 8.97142 11.7405 8.93904 11.5581 8.93148L11.3552 8.92339C11.2991 8.92339 11.2581 8.92339 11.2176 8.9072C11.169 8.89101 11.1366 8.85054 11.1366 8.79387C11.1366 8.74531 11.1458 8.70429 11.1852 8.68055C11.23 8.65572 11.2807 8.64493 11.332 8.64817H11.9958V8.3233H11.2672C10.8873 8.3233 10.7502 8.55913 10.7502 8.77661C10.7502 9.26229 11.169 9.23801 11.5095 9.2461C11.5657 9.2461 11.6067 9.25419 11.6309 9.27848C11.6558 9.29467 11.6752 9.33568 11.6752 9.37562C11.6752 9.41717 11.6563 9.45656 11.632 9.47275C11.5997 9.50135 11.5511 9.51053 11.4825 9.51053ZM0.529297 0.964111V6.4124L0.966412 5.40002H1.9108L2.03222 5.65042V5.40002H3.13472L3.37756 5.95047L3.61339 5.4038H7.12219C7.28138 5.4038 7.42439 5.43456 7.53016 5.53116V5.40704H8.49451V5.53116C8.66018 5.43942 8.86471 5.40704 9.09892 5.40704H10.5052L10.6348 5.65852V5.40704H11.6698L11.8069 5.65798V5.4065H12.8095V7.53703H11.7918L11.5975 7.21324V7.52894H10.3277L10.1895 7.18896H9.87493L9.72923 7.5203H9.07463C8.8156 7.5203 8.62133 7.46418 8.49181 7.39079V7.5203H6.93223V7.04325C6.93223 6.9785 6.91604 6.9785 6.87557 6.9704H6.8189V7.52948H3.80335V7.27045L3.69002 7.52948H3.06025L2.95124 7.27045V7.52138H1.73541L1.59726 7.18464H1.28481L1.14666 7.52138H0.529297V13.9157H13.3654V10.0799C13.2197 10.1527 13.0346 10.177 12.8403 10.177H11.9105V10.0394C11.7972 10.1284 11.6029 10.177 11.4172 10.177H8.46753V9.69131C8.46753 9.62655 8.45782 9.62655 8.40277 9.62655H8.3623V10.1781H7.39093V9.60281C7.23011 9.6762 7.04394 9.68375 6.89014 9.6762H6.77465V10.17H5.59822L5.30681 9.83702L4.99921 10.1608H3.08831V8.03999H5.03644L5.31598 8.36485L5.61495 8.04106H6.91658C7.06768 8.04106 7.31592 8.05725 7.42493 8.16249V8.03297H8.59974C8.70875 8.03297 8.94728 8.05725 9.08705 8.15439V8.02487H10.849V8.15439C10.937 8.06589 11.1231 8.02487 11.2823 8.02487H12.3023V8.15439C12.407 8.07344 12.5527 8.02487 12.7556 8.02487H13.3902V0.964111H0.529297ZM11.9461 9.03456C11.9483 9.03726 11.9499 9.04103 11.952 9.04319C11.9574 9.04859 11.9645 9.04859 11.9688 9.05399L11.9461 9.0351V9.03456ZM13.388 8.0238H13.4231V8.3233H13.388V8.0238ZM13.408 9.07503V9.07233C13.3918 9.05884 13.3832 9.04643 13.3675 9.03456C13.2866 8.95199 13.1571 8.91853 12.9552 8.91314L12.761 8.90666C12.6962 8.90666 12.6563 8.90288 12.6153 8.89047C12.5667 8.87428 12.5343 8.83381 12.5343 8.77715C12.5343 8.72858 12.5505 8.6908 12.5829 8.66706C12.6239 8.64277 12.6638 8.64007 12.7286 8.64007H13.3886V8.32276H12.6962C12.3239 8.32276 12.1782 8.55859 12.1782 8.77607C12.1782 9.26175 12.5991 9.23747 12.9391 9.24556C12.9952 9.24556 13.0362 9.25366 13.0599 9.27794C13.0848 9.29413 13.101 9.33514 13.101 9.37508C13.101 9.41285 13.0826 9.44955 13.0524 9.47221C13.0281 9.50243 12.979 9.50999 12.9067 9.50999H12.2116V9.83648H12.9061C13.1328 9.83648 13.3022 9.7728 13.3918 9.6422H13.408C13.4566 9.56989 13.4809 9.48031 13.4809 9.35997C13.4809 9.23045 13.4566 9.1495 13.408 9.07611V9.07503ZM10.5651 8.63144V8.31682H9.35903V9.84565H10.5651V9.52996H9.7179V9.22236H10.5452V8.9072H9.71844V8.63198M7.81995 5.706H8.18961V7.22404H7.82049L7.81995 5.706ZM7.61273 6.11398L7.60895 6.11722C7.60895 5.94777 7.53879 5.84739 7.42547 5.78048C7.30836 5.71302 7.17183 5.70762 6.98835 5.70762H6.15783V7.22943H6.52156V6.67144H6.9101C7.03962 6.67144 7.12057 6.68763 7.17291 6.73619C7.23875 6.80959 7.23065 6.94018 7.23065 7.03192V7.22296H7.596V6.92453C7.596 6.78962 7.58736 6.72216 7.53664 6.64607C7.48807 6.58833 7.42763 6.54354 7.35855 6.51818C7.45137 6.4804 7.61327 6.35628 7.61327 6.11344L7.61273 6.11398ZM7.15133 6.32768H7.14323C7.09466 6.35682 7.038 6.3579 6.96515 6.3579H6.5194V6.0217H6.96461C7.02937 6.0217 7.09412 6.02386 7.14269 6.04868C7.19126 6.07027 7.22364 6.11776 7.22364 6.18359C7.22364 6.24943 7.19828 6.30232 7.15133 6.32714V6.32768ZM9.1205 6.02224H9.46156V5.69845H9.11403C8.86363 5.69845 8.68015 5.75511 8.56359 5.87653C8.40925 6.03843 8.36823 6.24889 8.36823 6.47554C8.36823 6.75184 8.43461 6.92507 8.56251 7.05513C8.68771 7.18356 8.91058 7.22242 9.08597 7.22242H9.50689L9.6445 6.88406H10.3946L10.536 7.22242H11.2699V6.08376L11.9564 7.22242H12.469L12.4701 7.2235V5.70546H12.101V6.7648L11.4642 5.70708H10.9138V7.11611L10.3023 5.6828H9.76053L9.25164 6.88082H9.08974C8.99423 6.88082 8.89439 6.86463 8.83719 6.80851C8.76973 6.72756 8.73681 6.61423 8.73681 6.45126C8.73681 6.29746 8.77999 6.17604 8.84151 6.11128C8.91328 6.03843 8.98829 6.02224 9.11996 6.02224H9.1205ZM10.0206 5.96396L10.271 6.56728V6.56836H9.76916L10.0206 5.96396ZM1.81366 6.88406L1.95073 7.22296H2.68789V6.03303L3.21243 7.22296H3.52759L4.05266 6.03465L4.06076 7.22296H4.43312V5.70654H3.83087L3.39537 6.73404L2.92264 5.706H2.33334V7.14309L1.71922 5.706H1.18119L0.534693 7.22242H0.92324L1.06355 6.8846L1.81366 6.88406ZM1.44238 5.96396L1.69062 6.56728L1.689 6.56836H1.19522L1.44184 5.96396H1.44238ZM6.92737 8.31413H5.77144L5.31274 8.81222L4.86753 8.31467H3.41426V9.83648H4.84649L5.30789 9.33352L5.75256 9.8354H6.45518V9.32813H6.9074C7.23119 9.32813 7.53879 9.23962 7.53879 8.81816L7.53556 8.81654C7.53556 8.39561 7.21285 8.31467 6.92683 8.31467L6.92737 8.31413ZM4.6684 9.51916L4.66085 9.51808H3.77798V9.2175H4.57127V8.90774H3.77798V8.63252H4.68459L5.08015 9.07503L4.66786 9.5197L4.6684 9.51916ZM6.09415 9.69725L5.53832 9.07827L6.09415 8.48034V9.69617V9.69725ZM6.93223 9.01837H6.45464V8.63144H6.93223C7.06174 8.63144 7.15888 8.68433 7.15888 8.81708C7.15888 8.94821 7.07793 9.01783 6.93223 9.01783V9.01837ZM5.90798 6.02224V5.706H4.70078V7.22404H5.90798V6.91104H5.06235V6.60668H5.88639V6.29584H5.06235V6.02224" fill="#083366"/>
</svg>
