<?xml version="1.0" encoding="utf-8"?>
<!-- Generator: Adobe Illustrator 28.1.0, SVG Export Plug-In . SVG Version: 6.00 Build 0)  -->
<svg version="1.1" id="Layer_1" xmlns="http://www.w3.org/2000/svg" xmlns:xlink="http://www.w3.org/1999/xlink" x="0px" y="0px"
	 viewBox="0 0 20 20" style="enable-background:new 0 0 20 20;" xml:space="preserve">
<style type="text/css">
	.st0{fill:#083366;}
</style>
<g>
	<path class="st0" d="M18.4,2.9c-0.8-0.8-1.8-1.1-3.2-1.2V1c0-0.4-0.3-0.7-0.7-0.7S13.8,0.6,13.8,1v0.7c-0.6,0-1.3,0-2,0H8.2
		c-0.7,0-1.4,0-2,0V1c0-0.4-0.3-0.7-0.7-0.7S4.8,0.6,4.8,1v0.7C3.3,1.8,2.3,2.1,1.6,2.9C0.3,4.2,0.3,6,0.3,9.5v1.8
		c0,3.6,0,5.4,1.3,6.6c1.3,1.3,3.1,1.3,6.6,1.3h3.6c3.6,0,5.4,0,6.6-1.3c1.3-1.3,1.3-3.1,1.3-6.6V9.5C19.7,6,19.7,4.2,18.4,2.9z
		 M8.2,3h3.6c3.2,0,4.8,0,5.7,0.8C18,4.3,18.2,5,18.3,6.1H1.8C1.9,5,2.1,4.3,2.6,3.8C3.4,3,5,3,8.2,3z M18.3,11.3
		c0,3.2,0,4.8-0.8,5.7c-0.8,0.8-2.5,0.8-5.7,0.8H8.2c-3.2,0-4.8,0-5.7-0.8c-0.8-0.8-0.8-2.5-0.8-5.7V9.5c0-0.8,0-1.4,0-2h16.6
		c0,0.6,0,1.2,0,2C18.3,9.5,18.3,11.3,18.3,11.3z"/>
	<circle class="st0" cx="14.5" cy="14" r="0.9"/>
	<circle class="st0" cx="14.5" cy="10.4" r="0.9"/>
	<path class="st0" d="M10,13.1c-0.5,0-0.9,0.4-0.9,0.9s0.4,1,0.9,1s0.9-0.4,0.9-0.9S10.5,13.1,10,13.1z"/>
	<path class="st0" d="M10,9.5c-0.5,0-0.9,0.4-0.9,0.9s0.4,0.9,0.9,0.9s0.9-0.4,0.9-0.9C10.9,10,10.5,9.5,10,9.5z"/>
	<path class="st0" d="M5.5,13.1c-0.5,0-0.9,0.4-0.9,0.9s0.4,1,0.9,1s0.9-0.5,0.9-1S6,13.1,5.5,13.1z"/>
	<path class="st0" d="M5.5,9.5C5,9.5,4.6,10,4.6,10.4c0,0.5,0.4,0.9,0.9,0.9s0.9-0.4,0.9-0.9C6.4,10,6,9.5,5.5,9.5z"/>
</g>
</svg>
