<?xml version="1.0" encoding="utf-8"?>
<!-- Generator: Adobe Illustrator 28.1.0, SVG Export Plug-In . SVG Version: 6.00 Build 0)  -->
<svg version="1.1" id="Layer_1" xmlns="http://www.w3.org/2000/svg" xmlns:xlink="http://www.w3.org/1999/xlink" x="0px" y="0px"
	 viewBox="0 0 20 20" style="enable-background:new 0 0 20 20;" xml:space="preserve">
<style type="text/css">
	.st0{fill:#083366;}
</style>
<g>
	<path class="st0" d="M17.7,5.4l-5-5c-0.1-0.1-0.3-0.2-0.5-0.2H4.6C3.9,0.3,3.3,0.5,2.8,1C2.3,1.5,2.1,2.1,2.1,2.8v14.4
		c0,0.7,0.3,1.3,0.7,1.8c0.5,0.5,1.1,0.7,1.8,0.7h10.8c0.7,0,1.3-0.3,1.8-0.7c0.5-0.5,0.7-1.1,0.7-1.8V6C17.9,5.8,17.8,5.6,17.7,5.4
		z M15.9,5.7h-3.4V2.3L15.9,5.7z M16.2,18c-0.2,0.2-0.5,0.3-0.8,0.3H4.6c-0.3,0-0.6-0.1-0.8-0.3c-0.2-0.2-0.3-0.5-0.3-0.8V2.8
		c0-0.3,0.1-0.6,0.3-0.8C4,1.8,4.3,1.7,4.6,1.7h6.5v4.7c0,0.4,0.3,0.7,0.7,0.7h4.7v10.1C16.5,17.5,16.4,17.8,16.2,18z"/>
	<path class="st0" d="M13.6,10.2H6.4c-0.4,0-0.7,0.3-0.7,0.7s0.3,0.7,0.7,0.7h7.2c0.4,0,0.7-0.3,0.7-0.7S14,10.2,13.6,10.2z"/>
	<path class="st0" d="M13.6,13.8H6.4c-0.4,0-0.7,0.3-0.7,0.7s0.3,0.7,0.7,0.7h7.2c0.4,0,0.7-0.3,0.7-0.7S14,13.8,13.6,13.8z"/>
	<path class="st0" d="M6.4,8h1.8c0.4,0,0.7-0.3,0.7-0.7S8.6,6.6,8.2,6.6H6.4C6,6.6,5.7,6.9,5.7,7.3S6,8,6.4,8z"/>
</g>
</svg>
