<?xml version="1.0" encoding="utf-8"?>
<!-- Generator: Adobe Illustrator 28.1.0, SVG Export Plug-In . SVG Version: 6.00 Build 0)  -->
<svg version="1.1" id="Layer_1" xmlns="http://www.w3.org/2000/svg" xmlns:xlink="http://www.w3.org/1999/xlink" x="0px" y="0px"
	 viewBox="0 0 20 20" style="enable-background:new 0 0 20 20;" xml:space="preserve">
<style type="text/css">
	.st0{fill:#083366;}
</style>
<g>
	<path class="st0" d="M19.2,12.3c-0.4,0-0.7,0.3-0.7,0.7c0,2.6,0,3.9-0.7,4.6c-0.7,0.7-2,0.7-4.6,0.7h-6c-2.6,0-3.9,0-4.6-0.7
		C2,16.9,2,15.6,2,13c0-0.4-0.3-0.7-0.7-0.7S0.5,12.6,0.5,13c0,3,0,4.5,1.1,5.6c1.1,1.1,2.6,1.1,5.6,1.1h6c3,0,4.5,0,5.6-1.1
		C20,17.5,20,16,20,13C20,12.6,19.6,12.3,19.2,12.3z"/>
	<path class="st0" d="M9.7,14.5C9.7,14.5,9.7,14.5,9.7,14.5c0.1,0.1,0.2,0.1,0.2,0.2c0,0,0,0,0,0c0.1,0,0.1,0,0.2,0c0,0,0,0,0,0
		c0,0,0,0,0,0c0,0,0,0,0,0c0,0,0,0,0,0c0,0,0.1,0,0,0c0,0,0,0,0,0c0,0,0,0,0,0c0.1,0,0.2,0,0.2-0.1c0,0,0,0,0,0
		c0.1,0,0.1-0.1,0.2-0.1c0,0,0,0,0,0l4-4.4c0.3-0.3,0.2-0.7,0-1c-0.3-0.3-0.7-0.2-1,0l-2.7,3V1c0-0.4-0.3-0.7-0.7-0.7S9.5,0.6,9.5,1
		v11.1l-2.7-3c-0.3-0.3-0.7-0.3-1,0c-0.3,0.3-0.3,0.7,0,1L9.7,14.5z"/>
</g>
</svg>
