<?xml version="1.0" encoding="utf-8"?>
<!-- Generator: Adobe Illustrator 28.1.0, SVG Export Plug-In . SVG Version: 6.00 Build 0)  -->
<svg version="1.1" id="Layer_1" xmlns="http://www.w3.org/2000/svg" xmlns:xlink="http://www.w3.org/1999/xlink" x="0px" y="0px"
	 viewBox="0 0 20 20" style="enable-background:new 0 0 20 20;" xml:space="preserve">
<style type="text/css">
	.st0{fill:#083366;}
</style>
<g>
	<path class="st0" d="M18.455,3.345C17.189,2.08,15.389,2.08,11.801,2.08H8.2c-3.588,0-5.389,0-6.655,1.266
		C0.28,4.611,0.28,6.412,0.28,10c0,3.588,0,5.389,1.265,6.654C2.811,17.92,4.612,17.92,8.2,17.92h3.601c3.588,0,5.389,0,6.655-1.266
		C19.72,15.389,19.72,13.588,19.72,10C19.72,6.412,19.72,4.611,18.455,3.345z M17.438,15.637c-0.844,0.844-2.445,0.844-5.637,0.844
		H8.2c-3.191,0-4.792,0-5.636-0.844C1.721,14.793,1.721,13.192,1.721,10s0-4.793,0.843-5.637C3.408,3.52,5.009,3.52,8.2,3.52h3.601
		c3.191,0,4.793,0,5.636,0.843C18.28,5.207,18.28,6.809,18.28,10S18.28,14.793,17.438,15.637z"/>
	<path class="st0" d="M14.939,5.847l-1.943,1.619C11.375,8.818,10.69,9.365,10,9.365S8.626,8.818,7.004,7.466L5.062,5.847
		C4.756,5.592,4.302,5.634,4.047,5.939C3.793,6.245,3.834,6.698,4.14,6.953l1.943,1.619c1.728,1.44,2.68,2.233,3.918,2.233
		c1.239,0,2.19-0.793,3.917-2.233l1.943-1.619c0.306-0.254,0.347-0.708,0.092-1.014C15.699,5.634,15.245,5.593,14.939,5.847z"/>
</g>
</svg>
