<?xml version="1.0" encoding="utf-8"?>
<!-- Generator: Adobe Illustrator 28.1.0, SVG Export Plug-In . SVG Version: 6.00 Build 0)  -->
<svg version="1.1" id="Layer_1" xmlns="http://www.w3.org/2000/svg" xmlns:xlink="http://www.w3.org/1999/xlink" x="0px" y="0px"
	 viewBox="0 0 18 10" style="enable-background:new 0 0 18 10;" xml:space="preserve">
<style type="text/css">
	.st0{fill:#083366;}
</style>
<g>
	<path class="st0" d="M16.7,0.5L16.7,0.5L16.7,0.5z"/>
	<path class="st0" d="M17.5,0.3c-0.3-0.1-0.7,0-0.8,0.3l0,0l0,0l0,0l0,0l0,0c0,0,0,0.1-0.1,0.3c-0.1,0.1-0.3,0.4-0.4,0.8
		c-0.4,0.7-0.9,1.5-1.7,2.1c-0.7,0.7-1.6,1.3-2.7,1.7C11,5.9,10.1,6,9,6C6.3,6,4.3,4.7,3.1,3.3C2.5,2.7,2.1,2,1.7,1.5
		C1.5,1.2,1.4,0.9,1.4,0.8s0-0.1-0.1-0.1l0,0l0,0l0,0l0,0l0,0l0,0C1.1,0.3,0.7,0.1,0.5,0.3C0.1,0.4-0.1,0.8,0.1,1.1l0,0l0,0l0,0l0,0
		l0,0l0,0c0,0,0,0.1,0.1,0.3C0.3,1.5,0.5,1.7,0.6,2C1,2.5,1.4,3.3,2.2,4.1c0,0,0,0,0.1,0.1L1.5,5.1C1.3,5.3,1.3,5.7,1.5,6
		c0.3,0.3,0.7,0.3,0.9,0l0.8-0.8C3.8,5.6,4.3,6,5.1,6.4L4.3,7.6C4.1,7.9,4.2,8.3,4.5,8.4c0.3,0.1,0.7,0.1,0.8-0.1l1.1-1.5
		C7,7.1,7.7,7.2,8.5,7.2v1.5C8.4,9.1,8.6,9.3,9,9.3s0.7-0.3,0.7-0.5V7.3c0.8,0,1.5-0.1,2.1-0.4l0.9,1.5c0.1,0.3,0.5,0.4,0.8,0.1
		c0.3-0.1,0.4-0.5,0.1-0.8l-0.8-1.3c0.7-0.4,1.3-0.8,1.9-1.2L15.7,6c0.3,0.3,0.7,0.3,0.9,0c0.3-0.3,0.3-0.7,0-0.9l-0.9-0.8
		c0.7-0.7,1.2-1.5,1.6-2c0.3-0.4,0.4-0.7,0.5-0.8c0-0.1,0.1-0.1,0.1-0.3c0,0,0,0,0-0.1l0,0l0,0l0,0l0,0l0,0l0,0
		C18.1,0.8,17.9,0.4,17.5,0.3z"/>
</g>
</svg>
