<svg width="15" height="15" viewBox="0 0 15 15" fill="none" xmlns="http://www.w3.org/2000/svg">
<g clip-path="url(#clip0_4426_10866)">
<path d="M7.02943 0.134277C3.158 0.134277 0.0195312 3.27275 0.0195312 7.14418C0.0195312 10.4315 2.28289 13.1901 5.33612 13.9477V9.2864H3.89068V7.14418H5.33612V6.22112C5.33612 3.83523 6.41593 2.72934 8.75835 2.72934C9.2025 2.72934 9.96882 2.81655 10.2823 2.90347V4.84521C10.1169 4.82783 9.82947 4.81913 9.47252 4.81913C8.32318 4.81913 7.87903 5.25459 7.87903 6.38655V7.14418H10.1687L9.77535 9.2864H7.87903V14.1028C11.3501 13.6836 14.0396 10.7282 14.0396 7.14418C14.0393 3.27275 10.9009 0.134277 7.02943 0.134277Z" fill="#D1EAFD"/>
</g>
<defs>
<clipPath id="clip0_4426_10866">
<rect width="14.0198" height="14.0198" fill="white" transform="translate(0.0195312 0.134277)"/>
</clipPath>
</defs>
</svg>
