<?xml version="1.0" encoding="utf-8"?>
<!-- Generator: Adobe Illustrator 28.1.0, SVG Export Plug-In . SVG Version: 6.00 Build 0)  -->
<svg version="1.1" id="Layer_1" xmlns="http://www.w3.org/2000/svg" xmlns:xlink="http://www.w3.org/1999/xlink" x="0px" y="0px"
	 viewBox="0 0 20 20" style="enable-background:new 0 0 20 20;" xml:space="preserve">

<g>
	<path fill="#083366" d="M10,0.28c-5.36,0-9.72,4.36-9.72,9.72c0,5.359,4.36,9.72,9.72,9.72s9.72-4.36,9.72-9.72
		C19.72,4.64,15.36,0.28,10,0.28z M10,18.281c-4.565,0-8.28-3.715-8.28-8.28S5.435,1.72,10,1.72s8.28,3.714,8.28,8.28
		S14.565,18.281,10,18.281z"/>
	<path fill="#083366" d="M10.521,4.738c-0.816-0.14-1.657,0.014-2.373,0.433C7.436,5.59,6.891,6.251,6.617,7.032
		C6.468,7.454,6.69,7.917,7.112,8.065C7.535,8.214,7.996,7.991,8.145,7.57c0.148-0.42,0.441-0.776,0.825-1.002
		c0.385-0.226,0.839-0.308,1.278-0.233c0.439,0.075,0.838,0.304,1.126,0.646c0.287,0.341,0.445,0.774,0.444,1.221
		c0,0.984-1.591,1.743-2.148,1.932c-0.423,0.143-0.651,0.602-0.509,1.026c0.114,0.338,0.429,0.553,0.767,0.553
		c0.085,0,0.171-0.014,0.256-0.042c0.133-0.044,3.254-1.112,3.254-3.467c0.001-0.828-0.292-1.632-0.825-2.266
		C12.079,5.302,11.336,4.877,10.521,4.738z"/>
	<path fill="#083366" d="M10.008,13.42H10c-0.597,0-1.076,0.483-1.076,1.08s0.487,1.08,1.084,1.08s1.08-0.483,1.08-1.08
		S10.604,13.42,10.008,13.42z"/>
</g>
</svg>
