<?xml version="1.0" encoding="utf-8"?>
<!-- Generator: Adobe Illustrator 28.1.0, SVG Export Plug-In . SVG Version: 6.00 Build 0)  -->
<svg version="1.1" id="Layer_1" xmlns="http://www.w3.org/2000/svg" xmlns:xlink="http://www.w3.org/1999/xlink" x="0px" y="0px"
	 viewBox="0 0 20 20" style="enable-background:new 0 0 20 20;" xml:space="preserve">

<path fill="#083366" d="M16.9,3.1C15,1.3,12.6,0.3,10,0.3c-2.6,0-5,1-6.9,2.8C1.3,5,0.3,7.4,0.3,10c0,2.6,1,5,2.8,6.9s4.3,2.8,6.9,2.8
	c2.6,0,5-1,6.9-2.8c1.8-1.8,2.8-4.3,2.8-6.9C19.7,7.4,18.7,5,16.9,3.1z M15.3,3.7l-2.8,2.8C11.8,6,10.9,5.7,10,5.7
	C9.1,5.7,8.2,6,7.5,6.5L4.7,3.7C6.2,2.4,8,1.7,10,1.7C12,1.7,13.8,2.4,15.3,3.7z M7.1,10c0-0.8,0.3-1.5,0.8-2c0.5-0.5,1.3-0.8,2-0.8
	s1.5,0.3,2,0.8c0.5,0.5,0.8,1.3,0.8,2c0,0.8-0.3,1.5-0.8,2c-1.1,1.1-3,1.1-4.1,0C7.4,11.5,7.1,10.8,7.1,10z M1.7,10
	c0-2,0.7-3.8,1.9-5.3l2.8,2.8C6,8.2,5.7,9.1,5.7,10c0,0.9,0.3,1.8,0.8,2.5l-2.8,2.8C2.4,13.8,1.7,12,1.7,10z M4.7,16.3l2.8-2.8
	c0.7,0.5,1.6,0.8,2.5,0.8c0.9,0,1.8-0.3,2.5-0.8l2.8,2.8c-1.5,1.3-3.4,1.9-5.3,1.9C8,18.3,6.2,17.6,4.7,16.3z M16.3,15.3l-2.8-2.8
	c0.5-0.7,0.8-1.6,0.8-2.5c0-0.9-0.3-1.8-0.8-2.5l2.8-2.8c1.3,1.5,1.9,3.4,1.9,5.3C18.3,12,17.6,13.8,16.3,15.3z"/>
</svg>
