<?xml version="1.0" encoding="utf-8"?>
<!-- Generator: Adobe Illustrator 28.1.0, SVG Export Plug-In . SVG Version: 6.00 Build 0)  -->
<svg version="1.1" id="Layer_1" xmlns="http://www.w3.org/2000/svg" xmlns:xlink="http://www.w3.org/1999/xlink" x="0px" y="0px"
	 viewBox="0 0 20 20" style="enable-background:new 0 0 20 20;" xml:space="preserve">

<g>
	<path fill="#083366" d="M10,5.2C9.6,5.2,9.2,5.6,9.2,6v4c0,0.2,0.1,0.4,0.2,0.6l2.5,2.5c0.2,0.2,0.4,0.2,0.6,0.2s0.4-0.1,0.6-0.2
		c0.3-0.3,0.3-0.8,0-1.1l-2.3-2.3V6C10.8,5.6,10.4,5.2,10,5.2z"/>
	<path fill="#083366" d="M16.9,3.1C13.1-0.7,6.9-0.8,3,3l0-0.8c0-0.4-0.3-0.8-0.8-0.8c-0.4,0-0.8,0.3-0.8,0.8l0,2.6
		c0,0.4,0.3,0.7,0.8,0.8l0-0.8l0,0l0,0.8l2.6,0c0.4,0,0.8-0.3,0.8-0.8S5.3,4.1,4.9,4.1l-0.8,0c3.2-3.2,8.5-3.2,11.7,0.1
		c3.3,3.3,3.3,8.5,0.1,11.7c-3.2,3.2-8.5,3.2-11.7-0.1c-1.9-1.9-2.7-4.6-2.4-7.1C1.8,8.4,1.6,8,1.1,7.9C0.7,7.9,0.3,8.2,0.3,8.6
		c-0.4,2.9,0.5,6,2.8,8.3c3.8,3.8,10,3.9,13.9,0.1C20.8,13.1,20.7,6.9,16.9,3.1z"/>
</g>
</svg>
