<?xml version="1.0" encoding="utf-8"?>
<!-- Generator: Adobe Illustrator 28.1.0, SVG Export Plug-In . SVG Version: 6.00 Build 0)  -->
<svg version="1.1" id="Layer_1" xmlns="http://www.w3.org/2000/svg" xmlns:xlink="http://www.w3.org/1999/xlink" x="0px" y="0px"
	 viewBox="0 0 20 20" style="enable-background:new 0 0 20 20;" xml:space="preserve">

<g>
	<path fill="#083366" d="M19.2,5.9c-0.6-1-1.5-1.6-3.3-2.7l-1.8-1.1c-1.9-1.2-2.9-1.8-4.1-1.8S7.8,0.9,5.9,2.1L4.1,3.2
		C2.4,4.3,1.4,4.9,0.8,5.9S0.2,8,0.2,10.2v1.4c0,3.7,0,5.6,1.3,6.9s3.1,1.3,6.7,1.3h3.6c3.6,0,5.4,0,6.7-1.3
		c1.3-1.3,1.3-3.2,1.3-6.9v-1.4C19.7,8,19.7,6.9,19.2,5.9z M18.3,11.6c0,3.3,0,5-0.9,5.9c-0.8,0.9-2.4,0.9-5.6,0.9H8.2
		c-3.2,0-4.8,0-5.6-0.9c-0.9-0.9-0.9-2.5-0.9-5.9v-1.4c0-1.9,0-2.9,0.4-3.6s1.2-1.2,2.8-2.2l1.8-1.1c1.7-1,2.5-1.6,3.3-1.6
		s1.6,0.5,3.3,1.6l1.8,1.1c1.6,1,2.4,1.5,2.8,2.2s0.4,1.7,0.4,3.6V11.6z"/>
	<path fill="#083366" d="M12.7,14.7H7.3c-0.4,0-0.7,0.3-0.7,0.7s0.3,0.7,0.7,0.7h5.4c0.4,0,0.7-0.3,0.7-0.7S13.1,14.7,12.7,14.7z"/>
</g>
</svg>
