<svg width="15" height="14" viewBox="0 0 15 14" fill="none" xmlns="http://www.w3.org/2000/svg">
<path d="M5.41664 6.86083C4.34455 6.86083 3.47266 5.98894 3.47266 4.91607C3.47266 3.84321 4.34455 2.97131 5.41664 2.97131C6.48873 2.97131 7.3614 3.84321 7.3614 4.91607C7.3614 5.98894 6.48951 6.86083 5.41664 6.86083ZM5.41664 4.08283C4.95751 4.08283 4.5834 4.45616 4.5834 4.91607C4.5834 5.37598 4.95673 5.74932 5.41664 5.74932C5.87655 5.74932 6.24989 5.37598 6.24989 4.91607C6.24989 4.45616 5.87655 4.08283 5.41664 4.08283Z" fill="#083366"/>
<path d="M5.41502 11.0272C2.59759 11.0272 2.08203 10.3717 2.08203 9.08241C2.08203 7.97399 3.51509 7.13843 5.41502 7.13843C7.31495 7.13843 8.74801 7.97477 8.74801 9.08241C8.74801 10.3717 8.23245 11.0272 5.41502 11.0272ZM5.41502 8.24917C4.03684 8.24917 3.19277 8.78869 3.19277 9.08241C3.19277 9.60184 3.19277 9.91566 5.41502 9.91566C7.63727 9.91566 7.63727 9.60184 7.63727 9.08241C7.63727 8.78869 6.79398 8.24917 5.41502 8.24917Z" fill="#083366"/>
<path d="M8.88823 13.1103H6.111C3.34227 13.1103 1.95326 13.1103 0.976244 12.1332C0 11.157 0 9.76722 0 6.99926C0 4.2313 0 2.84153 0.976244 1.86528C1.95326 0.889038 3.34227 0.889038 6.111 0.889038H8.88823C11.657 0.889038 13.0467 0.889038 14.023 1.86528C15 2.84153 15 4.2313 15 7.00003C15 9.76877 15 11.1578 14.023 12.134C13.0467 13.111 11.657 13.1103 8.88823 13.1103ZM6.111 1.99978C3.64913 1.99978 2.41317 1.99978 1.76234 2.65061C1.11151 3.30144 1.11151 4.53739 1.11151 6.99926C1.11151 9.46113 1.11151 10.6971 1.76234 11.3479C2.41317 11.9987 3.64913 11.9987 6.111 11.9987H8.88823C11.3509 11.9987 12.5861 11.9987 13.2377 11.3479C13.8885 10.6963 13.8885 9.46113 13.8885 6.99926C13.8885 4.53739 13.8885 3.30144 13.2377 2.65061C12.5861 1.99978 11.3509 1.99978 8.88823 1.99978H6.111Z" fill="#083366"/>
<path d="M12.3611 7.55499H9.5831C9.27701 7.55499 9.02734 7.3061 9.02734 6.99924C9.02734 6.69237 9.27624 6.44348 9.5831 6.44348H12.3611C12.6672 6.44348 12.9169 6.69237 12.9169 6.99924C12.9169 7.3061 12.668 7.55499 12.3611 7.55499Z" fill="#083366"/>
<path d="M12.3599 5.47199H8.88779C8.5817 5.47199 8.33203 5.22309 8.33203 4.91623C8.33203 4.60937 8.58092 4.36047 8.88779 4.36047H12.3599C12.666 4.36047 12.9157 4.60937 12.9157 4.91623C12.9157 5.22309 12.6668 5.47199 12.3599 5.47199Z" fill="#083366"/>
<path d="M12.3615 9.63812H10.2784C9.97232 9.63812 9.72266 9.38923 9.72266 9.08237C9.72266 8.7755 9.97155 8.52661 10.2784 8.52661H12.3615C12.6676 8.52661 12.9173 8.7755 12.9173 9.08237C12.9173 9.38923 12.6684 9.63812 12.3615 9.63812Z" fill="#083366"/>
</svg>
