<?xml version="1.0" encoding="utf-8"?>
<!-- Generator: Adobe Illustrator 28.1.0, SVG Export Plug-In . SVG Version: 6.00 Build 0)  -->
<svg version="1.1" id="Layer_1" xmlns="http://www.w3.org/2000/svg" xmlns:xlink="http://www.w3.org/1999/xlink" x="0px" y="0px"
	 viewBox="0 0 20 20" style="enable-background:new 0 0 20 20;" xml:space="preserve">
<style type="text/css">
	.st0{fill:#083366;}
</style>
<g>
	<path class="st0" d="M16.9,3.1C15,1.3,12.6,0.3,10,0.3c-2.6,0-5,1-6.9,2.8C1.3,5,0.3,7.4,0.3,10c0,2.6,1,5,2.8,6.9s4.3,2.8,6.9,2.8
		c2.6,0,5-1,6.9-2.8c1.8-1.8,2.8-4.3,2.8-6.9C19.7,7.4,18.7,5,16.9,3.1z M15.9,15.9c-1.6,1.6-3.6,2.4-5.9,2.4
		c-2.2,0-4.3-0.9-5.9-2.4c-1.6-1.6-2.4-3.6-2.4-5.9c0-2.2,0.9-4.3,2.4-5.9C5.7,2.6,7.8,1.7,10,1.7c2.2,0,4.3,0.9,5.9,2.4
		c1.6,1.6,2.4,3.6,2.4,5.9C18.3,12.2,17.4,14.3,15.9,15.9z"/>
	<path class="st0" d="M10,8.4c-0.4,0-0.7,0.3-0.7,0.7v5.4c0,0.4,0.3,0.7,0.7,0.7s0.7-0.3,0.7-0.7V9.1C10.7,8.7,10.4,8.4,10,8.4z"/>
	<path class="st0" d="M9.4,5.8C9.2,5.9,9.1,6.2,9.1,6.4c0,0.2,0.1,0.5,0.3,0.6C9.5,7.2,9.8,7.3,10,7.3c0.2,0,0.5-0.1,0.6-0.3
		c0.2-0.2,0.3-0.4,0.3-0.6c0-0.2-0.1-0.5-0.3-0.6C10.3,5.4,9.7,5.4,9.4,5.8z"/>
</g>
</svg>
