<svg width="15" height="15" viewBox="0 0 15 15" fill="none" xmlns="http://www.w3.org/2000/svg">
<g clip-path="url(#clip0_4426_10867)">
<path d="M7.04896 1.39661C8.92192 1.39661 9.14372 1.40482 9.88031 1.43768C10.5649 1.4678 10.9345 1.58281 11.181 1.67865C11.5068 1.80461 11.7423 1.95795 11.986 2.20165C12.2325 2.44809 12.3831 2.68084 12.509 3.00669C12.6049 3.25314 12.7199 3.62554 12.75 4.30736C12.7828 5.04668 12.7911 5.26848 12.7911 7.1387C12.7911 9.01166 12.7828 9.23346 12.75 9.97005C12.7199 10.6546 12.6049 11.0243 12.509 11.2707C12.3831 11.5966 12.2297 11.8321 11.986 12.0758C11.7396 12.3222 11.5068 12.4728 11.181 12.5988C10.9345 12.6946 10.5621 12.8096 9.88031 12.8397C9.14098 12.8726 8.91918 12.8808 7.04896 12.8808C5.17601 12.8808 4.95421 12.8726 4.21762 12.8397C3.53306 12.8096 3.1634 12.6946 2.91696 12.5988C2.5911 12.4728 2.35562 12.3195 2.11191 12.0758C1.86547 11.8293 1.71487 11.5966 1.58891 11.2707C1.49307 11.0243 1.37806 10.6519 1.34794 9.97005C1.31508 9.23072 1.30687 9.00892 1.30687 7.1387C1.30687 5.26574 1.31508 5.04395 1.34794 4.30736C1.37806 3.6228 1.49307 3.25314 1.58891 3.00669C1.71487 2.68084 1.86821 2.44535 2.11191 2.20165C2.35835 1.95521 2.5911 1.80461 2.91696 1.67865C3.1634 1.58281 3.5358 1.4678 4.21762 1.43768C4.95421 1.40482 5.17601 1.39661 7.04896 1.39661ZM7.04896 0.134277C5.14589 0.134277 4.90766 0.142492 4.16012 0.175351C3.41532 0.20821 2.90326 0.328693 2.45967 0.501202C1.99691 0.681926 1.60534 0.920153 1.21651 1.31172C0.824938 1.70055 0.586711 2.09212 0.405987 2.55215C0.233478 2.99848 0.112995 3.50779 0.0801361 4.25259C0.0472772 5.00287 0.0390625 5.2411 0.0390625 7.14418C0.0390625 9.04726 0.0472772 9.28548 0.0801361 10.033C0.112995 10.7778 0.233478 11.2899 0.405987 11.7335C0.586711 12.1962 0.824938 12.5878 1.21651 12.9766C1.60534 13.3655 1.99691 13.6064 2.45693 13.7844C2.90326 13.9569 3.41258 14.0774 4.15738 14.1103C4.90492 14.1431 5.14315 14.1513 7.04623 14.1513C8.9493 14.1513 9.18753 14.1431 9.93507 14.1103C10.6799 14.0774 11.1919 13.9569 11.6355 13.7844C12.0955 13.6064 12.4871 13.3655 12.8759 12.9766C13.2648 12.5878 13.5057 12.1962 13.6837 11.7362C13.8562 11.2899 13.9767 10.7806 14.0096 10.0358C14.0424 9.28822 14.0507 9.05 14.0507 7.14692C14.0507 5.24384 14.0424 5.00561 14.0096 4.25807C13.9767 3.51327 13.8562 3.00122 13.6837 2.55762C13.5112 2.09212 13.273 1.70055 12.8814 1.31172C12.4926 0.922891 12.101 0.681926 11.641 0.50394C11.1947 0.331431 10.6854 0.210948 9.94055 0.178089C9.19027 0.142492 8.95204 0.134277 7.04896 0.134277Z" fill="#D1EAFD"/>
<path d="M7.04805 3.54346C5.06009 3.54346 3.44727 5.15628 3.44727 7.14425C3.44727 9.13221 5.06009 10.745 7.04805 10.745C9.03602 10.745 10.6488 9.13221 10.6488 7.14425C10.6488 5.15628 9.03602 3.54346 7.04805 3.54346ZM7.04805 9.47997C5.75834 9.47997 4.71233 8.43396 4.71233 7.14425C4.71233 5.85453 5.75834 4.80853 7.04805 4.80853C8.33777 4.80853 9.38378 5.85453 9.38378 7.14425C9.38378 8.43396 8.33777 9.47997 7.04805 9.47997Z" fill="#D1EAFD"/>
<path d="M11.6325 3.40094C11.6325 3.86645 11.2546 4.24159 10.7918 4.24159C10.3263 4.24159 9.95117 3.86371 9.95117 3.40094C9.95117 2.93544 10.329 2.5603 10.7918 2.5603C11.2546 2.5603 11.6325 2.93818 11.6325 3.40094Z" fill="#D1EAFD"/>
</g>
<defs>
<clipPath id="clip0_4426_10867">
<rect width="14.0198" height="14.0198" fill="white" transform="translate(0.0390625 0.134277)"/>
</clipPath>
</defs>
</svg>
