<?xml version="1.0" encoding="utf-8"?>
<!-- Generator: Adobe Illustrator 28.1.0, SVG Export Plug-In . SVG Version: 6.00 Build 0)  -->
<svg version="1.1" id="Layer_1" xmlns="http://www.w3.org/2000/svg" xmlns:xlink="http://www.w3.org/1999/xlink" x="0px" y="0px"
	 viewBox="0 0 20 20" style="enable-background:new 0 0 20 20;" xml:space="preserve">

<path fill="#083366" d="M18.98,6.279c-0.49-1.185-1.199-2.246-2.106-3.153c-0.907-0.907-1.968-1.616-3.153-2.107
	c-2.37-0.982-5.066-0.983-7.439,0c-1.186,0.491-2.247,1.2-3.153,2.107C2.22,4.032,1.511,5.093,1.02,6.279
	c-0.491,1.186-0.74,2.438-0.74,3.72c0,1.283,0.249,2.534,0.74,3.72c0.491,1.186,1.2,2.246,2.107,3.153
	c0.907,0.907,1.968,1.616,3.152,2.106c1.184,0.491,2.435,0.74,3.718,0.74c0,0,0.001,0,0.001,0c0,0,0,0,0,0c0,0,0.001,0,0.001,0
	c1.284,0,2.536-0.249,3.72-0.74c1.185-0.49,2.245-1.199,3.154-2.106c0.906-0.908,1.615-1.969,2.105-3.152
	c0.491-1.185,0.74-2.437,0.74-3.721S19.471,7.463,18.98,6.279z M15.856,4.144c0.772,0.773,1.376,1.677,1.794,2.687
	c0.326,0.786,0.523,1.607,0.596,2.448H14.29c-0.03-0.975-0.105-1.933-0.256-2.842c-0.19-1.151-0.467-2.184-0.821-3.069
	c-0.181-0.453-0.38-0.858-0.594-1.216c0.184,0.062,0.369,0.122,0.55,0.197C14.179,2.767,15.082,3.371,15.856,4.144z M11.875,16.095
	c-0.297,0.743-0.648,1.337-1.018,1.718c-0.294,0.305-0.571,0.458-0.849,0.462c-0.007,0-0.015,0-0.022,0
	c-0.277-0.004-0.554-0.157-0.848-0.461c-0.368-0.381-0.72-0.975-1.017-1.718c-0.317-0.792-0.565-1.724-0.738-2.771
	c-0.138-0.834-0.207-1.712-0.236-2.606h5.704c-0.03,0.896-0.098,1.774-0.237,2.607C12.441,14.374,12.193,15.305,11.875,16.095z
	 M7.147,9.278c0.03-0.894,0.098-1.772,0.236-2.606c0.173-1.046,0.421-1.978,0.738-2.77c0.297-0.744,0.649-1.337,1.018-1.719
	c0.204-0.212,0.52-0.464,0.859-0.465c0,0,0.001,0,0.001,0c0.272,0,0.561,0.156,0.859,0.465c0.368,0.381,0.72,0.975,1.018,1.719
	c0.316,0.789,0.564,1.721,0.738,2.77c0.138,0.832,0.207,1.711,0.237,2.606H7.147z M4.146,4.144c0.772-0.773,1.676-1.376,2.686-1.795
	c0.18-0.074,0.364-0.134,0.547-0.196C7.164,2.511,6.966,2.915,6.785,3.367c-0.355,0.888-0.632,1.92-0.822,3.069
	C5.812,7.348,5.737,8.305,5.707,9.278H1.756C1.828,8.438,2.025,7.616,2.35,6.83C2.769,5.82,3.372,4.917,4.146,4.144z M4.146,15.854
	c-0.773-0.773-1.377-1.677-1.795-2.687c-0.326-0.786-0.522-1.608-0.595-2.449h3.951c0.03,0.974,0.105,1.931,0.256,2.841
	c0.19,1.149,0.467,2.182,0.822,3.07c0.181,0.451,0.379,0.855,0.593,1.212c-0.183-0.061-0.367-0.121-0.546-0.195
	C5.822,17.23,4.919,16.626,4.146,15.854z M15.856,15.853c-0.773,0.773-1.678,1.377-2.688,1.795c-0.18,0.075-0.364,0.135-0.548,0.196
	c0.214-0.358,0.412-0.762,0.592-1.213c0.355-0.886,0.632-1.919,0.822-3.069c0.151-0.909,0.226-1.867,0.256-2.842h3.955
	c-0.073,0.841-0.27,1.663-0.596,2.449C17.232,14.176,16.628,15.081,15.856,15.853z"/>
</svg>
