<?xml version="1.0" encoding="utf-8"?>
<!-- Generator: Adobe Illustrator 28.1.0, SVG Export Plug-In . SVG Version: 6.00 Build 0)  -->
<svg version="1.1" id="Layer_1" xmlns="http://www.w3.org/2000/svg" xmlns:xlink="http://www.w3.org/1999/xlink" x="0px" y="0px"
	 viewBox="0 0 20 20" style="enable-background:new 0 0 20 20;" xml:space="preserve">
<style type="text/css">
	.st0{fill:#083366;}
</style>
<g>
	<path class="st0" d="M12.5,6c-0.3-0.3-0.7-0.6-1.1-0.8C10,4.7,8.5,5,7.5,6c-0.7,0.7-1,1.6-1,2.5c0,0.9,0.4,1.8,1,2.5
		c0.7,0.7,1.6,1,2.5,1c0.5,0,0.9-0.1,1.4-0.3c0.4-0.2,0.8-0.4,1.1-0.8c0.3-0.3,0.6-0.7,0.8-1.1s0.3-0.9,0.3-1.4
		c0-0.5-0.1-0.9-0.3-1.4C13.1,6.7,12.8,6.3,12.5,6z M11.9,9.3c-0.1,0.3-0.3,0.5-0.5,0.7c-0.2,0.2-0.4,0.3-0.7,0.5
		C10,10.7,9.1,10.5,8.5,10C8.1,9.6,7.9,9,7.9,8.5c0-0.6,0.2-1.1,0.6-1.5C8.9,6.6,9.4,6.4,10,6.4c0.3,0,0.5,0.1,0.8,0.2
		c0.3,0.1,0.5,0.3,0.7,0.5c0.2,0.2,0.3,0.4,0.5,0.7c0.1,0.3,0.2,0.5,0.2,0.8C12.1,8.8,12,9,11.9,9.3z"/>
	<path class="st0" d="M18.3,6.7c-1-4.4-4.9-6.4-8.3-6.4c0,0,0,0,0,0c-3.4,0-7.3,2-8.3,6.4v0c-1.1,4.9,1.8,9,4.5,11.5
		c1,1,2.3,1.5,3.8,1.5s2.7-0.5,3.8-1.5C16.4,15.7,19.4,11.6,18.3,6.7z M12.7,17.2c-1.5,1.4-4,1.4-5.5,0C4.8,14.9,2.2,11.2,3.1,7
		C4,3.1,7.4,1.7,10,1.7c0,0,0,0,0,0c2.6,0,6,1.4,6.9,5.3C17.8,11.2,15.2,14.9,12.7,17.2z"/>
</g>
</svg>
