<svg width="22" height="14" viewBox="0 0 22 14" fill="none" xmlns="http://www.w3.org/2000/svg">
<path fill-rule="evenodd" clip-rule="evenodd" d="M10.2233 1.79494C8.57103 3.20527 7.62048 5.26931 7.62281 7.44163C7.62056 9.61297 8.57034 11.6761 10.2214 13.0865C7.49791 14.6153 4.07125 13.9823 2.07373 11.5814C0.0761982 9.18042 0.0770799 5.69579 2.07581 3.29587C4.07456 0.895953 7.50059 0.2647 10.2233 1.79494ZM11.0519 2.34932C12.6146 3.57596 13.5265 5.45307 13.5247 7.43972C13.5259 9.42569 12.6141 11.302 11.0519 12.5282C9.48944 11.3017 8.5776 9.42508 8.57909 7.43878C8.5776 5.45246 9.48944 3.57576 11.0519 2.34932ZM14.4811 7.44163C14.4834 9.61297 13.5336 11.6761 11.8826 13.0865C14.606 14.6153 18.0336 13.9823 20.0312 11.5814C22.0287 9.18042 22.0279 5.69579 20.0291 3.29587C18.0303 0.895953 14.6033 0.2647 11.8807 1.79494C13.5329 3.20527 14.4834 5.26931 14.4811 7.44163Z" fill="#083366"/>
</svg>
