<?xml version="1.0" encoding="utf-8"?>
<!-- Generator: Adobe Illustrator 28.1.0, SVG Export Plug-In . SVG Version: 6.00 Build 0)  -->
<svg version="1.1" id="Layer_1" xmlns="http://www.w3.org/2000/svg" xmlns:xlink="http://www.w3.org/1999/xlink" x="0px" y="0px"
	 viewBox="0 0 20 20" style="enable-background:new 0 0 20 20;" xml:space="preserve">
<style type="text/css">
	.st0{fill:#083366;}
</style>
<g>
	<path class="st0" d="M13.3,0.3c-3.5,0-6.4,2.9-6.4,6.4c0,1,0.3,1.9,0.5,2.4l-6.5,6.5c-0.1,0.1-0.6,0.7-0.6,1.5
		c0,0.4,0.1,0.9,0.6,1.4l0.8,0.8c0.4,0.3,0.9,0.5,1.4,0.5c0.5,0,0.9-0.2,1.3-0.6l0.5-0.5c0.5,0.3,0.9,0.3,1.2,0.3
		c0.8-0.1,1.4-0.5,1.7-0.9c0.3-0.4,0.4-0.8,0.4-1.2c0.3,0.1,0.5,0.1,0.7,0.1c1-0.1,1.6-0.8,1.8-1c0.7-1,0.4-2.1,0-2.6
		c-0.1-0.1-0.1-0.2-0.2-0.3l0.4-0.4c1,0.5,2.2,0.5,2.4,0.5c3.5,0,6.4-2.9,6.4-6.4S16.8,0.3,13.3,0.3z M13.3,11.6
		c-0.6,0-1.6-0.2-2.1-0.5c-0.3-0.2-0.7-0.2-1,0L9.5,12c-0.7,0.6-0.7,1.2-0.2,1.8c0.1,0.1,0.1,0.1,0.2,0.2c0,0,0,0.1,0.1,0.1
		c0,0,0.4,0.5,0,1c-0.1,0.1-0.4,0.4-0.7,0.4c-0.3,0-0.6-0.1-1-0.5c-0.3-0.3-0.7-0.3-1,0l-0.3,0.3c-0.3,0.3-0.3,0.7,0,1
		c0.1,0.1,0.4,0.5,0.1,0.9c-0.1,0.2-0.4,0.3-0.6,0.3c-0.2,0-0.4-0.1-0.7-0.3c-0.3-0.3-0.7-0.3-1,0l-0.9,0.9c-0.3,0.3-0.7,0-0.7,0
		l-0.8-0.8C1.7,17.2,1.7,17,1.7,17c0-0.2,0.1-0.4,0.2-0.4l6.9-6.8C9,9.4,9.1,9.1,8.9,8.8c0,0-0.6-0.9-0.6-2.1c0-2.7,2.2-4.9,5-4.9
		c2.7,0,5,2.2,5,4.9S16.1,11.6,13.3,11.6z"/>
	<path class="st0" d="M13.3,4c-1.5,0-2.7,1.2-2.7,2.7c0,1.5,1.2,2.7,2.7,2.7c1.5,0,2.7-1.2,2.7-2.7C16,5.2,14.8,4,13.3,4z M13.3,7.9
		c-0.7,0-1.3-0.6-1.3-1.3s0.6-1.3,1.3-1.3c0.7,0,1.3,0.6,1.3,1.3S14,7.9,13.3,7.9z"/>
</g>
</svg>
