<svg width="11" height="14" viewBox="0 0 11 14" fill="none" xmlns="http://www.w3.org/2000/svg">
<path d="M3.05024 11.3243H0.783715C0.739874 11.3243 0.696555 11.3148 0.656744 11.2964C0.616932 11.2781 0.581575 11.2513 0.553107 11.2179C0.524639 11.1846 0.503738 11.1455 0.491844 11.1033C0.479949 11.0611 0.477345 11.0168 0.48421 10.9735L2.0125 1.27927C2.02637 1.19146 2.07111 1.11149 2.13867 1.05372C2.20623 0.995952 2.29218 0.964178 2.38108 0.964111H6.27842C8.1224 0.964111 9.4645 2.30676 9.4332 3.93218C9.42997 4.06709 9.41863 4.202 9.39759 4.3353C9.26361 5.19937 8.82523 5.98711 8.16154 6.55639C7.49786 7.12568 6.65256 7.43902 5.77816 7.4399H3.98221C3.89343 7.43985 3.80756 7.47153 3.74007 7.52922C3.67259 7.5869 3.62794 7.66681 3.61417 7.75451L3.43879 8.86403L3.43177 8.90882L3.05833 11.2779L3.05024 11.3243ZM9.94371 4.27863C9.93832 4.32558 9.93832 4.37307 9.9313 4.41948C9.78095 5.41223 9.27892 6.31791 8.51669 6.97148C7.75445 7.62505 6.78277 7.98299 5.7787 7.98008H4.12468L3.97196 8.94875L3.96494 8.99354L3.59151 11.3626L3.51919 11.8175L3.51164 11.865H2.96605L2.69785 13.5649C2.69098 13.6082 2.69359 13.6525 2.70548 13.6947C2.71738 13.7369 2.73828 13.776 2.76675 13.8093C2.79521 13.8427 2.83057 13.8694 2.87038 13.8878C2.91019 13.9062 2.95351 13.9157 2.99735 13.9157H4.94657C5.13005 13.9157 5.28654 13.7813 5.31515 13.6L5.82889 10.3454C5.84276 10.2576 5.8875 10.1776 5.95507 10.1198C6.02263 10.062 6.10858 10.0303 6.19747 10.0302H7.34476C8.21911 10.0295 9.0644 9.71624 9.7281 9.14704C10.3918 8.57785 10.8302 7.79017 10.9642 6.92615C11.1293 5.87384 10.7122 4.90571 9.94371 4.27863Z" fill="#083366"/>
</svg>
