<?xml version="1.0" encoding="utf-8"?>
<!-- Generator: Adobe Illustrator 28.1.0, SVG Export Plug-In . SVG Version: 6.00 Build 0)  -->
<svg version="1.1" id="Layer_1" xmlns="http://www.w3.org/2000/svg" xmlns:xlink="http://www.w3.org/1999/xlink" x="0px" y="0px"
	 viewBox="0 0 20 20" style="enable-background:new 0 0 20 20;" xml:space="preserve">

<path fill="#083366" d="M17.606,12.381l-1.763-1.01c-1-0.573-2.241-0.415-3.049,0.432l-0.376,0.394
	c-0.025,0.009-0.113,0.038-0.292,0.009c-0.381-0.062-1.185-0.392-2.503-1.774C8.304,9.049,7.99,8.208,7.932,7.812
	C7.905,7.628,7.931,7.537,7.94,7.513l0.219-0.23C9.068,6.33,9.135,4.824,8.37,3.746L7.206,2.107C6.265,0.782,4.415,0.573,3.292,1.75
	L1.843,3.269c-0.496,0.52-0.886,1.256-0.839,2.125c0.093,1.72,0.826,5.211,4.645,9.214c4.091,4.288,7.984,4.497,9.654,4.333
	c0.678-0.067,1.234-0.428,1.647-0.861l1.311-1.374C19.498,15.41,19.116,13.246,17.606,12.381z M12.38,12.236l-0.004,0.004
	l0.002-0.003C12.379,12.237,12.379,12.237,12.38,12.236z M12.376,12.24l-0.001,0.001v0L12.376,12.24z M15.973,17.046
	c-0.254,0.266-0.526,0.416-0.799,0.443c-1.338,0.131-4.801,0.014-8.549-3.915C3.052,9.828,2.46,6.678,2.386,5.311
	C2.368,4.975,2.514,4.623,2.819,4.304l1.449-1.518c0.491-0.514,1.362-0.462,1.83,0.196L7.262,4.62
	c0.372,0.524,0.317,1.213-0.079,1.627C6.964,6.477,6.754,6.69,6.645,6.994C6.551,7.257,6.5,7.605,6.564,8.036
	c0.124,0.842,0.674,1.954,2.083,3.431c1.409,1.477,2.469,2.052,3.269,2.182c0.409,0.066,0.738,0.013,0.988-0.085
	c0.365-0.144,0.603-0.451,0.866-0.726c0.354-0.371,0.925-0.464,1.412-0.185l1.763,1.01c0.755,0.433,0.872,1.45,0.339,2.008
	L15.973,17.046z"/>
</svg>
