<svg width="28" height="28" viewBox="0 0 28 28" fill="none" xmlns="http://www.w3.org/2000/svg">
<path d="M9.84992 7.39252L10.6586 8.83929C11.3883 10.1458 11.0954 11.8591 9.9464 13.006C9.9464 13.006 8.55358 14.3984 11.0796 16.9236C13.6039 19.4472 14.9984 18.0565 14.9984 18.0565C16.1474 16.9079 17.8595 16.6168 19.1664 17.3445L20.6136 18.153C22.587 19.2543 22.8186 22.0198 21.0854 23.7524C20.0434 24.7941 18.7664 25.6042 17.356 25.6586C14.9809 25.748 10.948 25.1483 6.90115 21.1026C2.85426 17.0552 2.25258 13.0235 2.34204 10.6491C2.39466 9.23912 3.20685 7.96246 4.24883 6.92079C5.98196 5.18818 8.7483 5.41966 9.84992 7.39252ZM13.86 3.11711C13.9424 2.60855 14.4231 2.26308 14.9318 2.3455C14.9633 2.35076 15.0651 2.37005 15.1177 2.38233C15.2247 2.40512 15.3721 2.44195 15.5563 2.49631C15.9264 2.60329 16.4421 2.78041 17.0613 3.0645C18.3015 3.63268 19.9522 4.62701 21.6643 6.33857C23.3764 8.05014 24.371 9.70033 24.9394 10.9402C25.2235 11.5592 25.4007 12.0748 25.5077 12.4448C25.5621 12.6289 25.5972 12.778 25.6217 12.8832C25.634 12.9358 25.6428 12.9797 25.648 13.0112L25.6551 13.0498C25.7375 13.5584 25.3954 14.0599 24.8867 14.1423C24.3798 14.2248 23.9009 13.8811 23.8167 13.3742C23.8149 13.3602 23.8062 13.3234 23.7991 13.2901C23.7834 13.2217 23.757 13.1112 23.7149 12.9674C23.6307 12.678 23.4851 12.2484 23.2413 11.7188C22.7554 10.6613 21.8836 9.19879 20.3434 7.65908C18.8032 6.11937 17.3403 5.24605 16.2825 4.76204C15.7527 4.52003 15.323 4.37273 15.0335 4.28855C14.8897 4.24646 14.7072 4.20437 14.6388 4.18859C14.1319 4.10442 13.7775 3.62391 13.86 3.11711ZM14.1424 7.40831C14.2845 6.91202 14.8002 6.62617 15.2966 6.76647H15.2984H15.3037L15.3142 6.76997L15.3387 6.77699C15.358 6.78225 15.3808 6.79102 15.4089 6.80154C15.465 6.82083 15.5387 6.84889 15.6299 6.88922C15.8106 6.96638 16.0597 7.08739 16.3632 7.26626C16.9719 7.62751 17.8034 8.22551 18.7804 9.2023C19.7575 10.1791 20.3557 11.0103 20.7171 11.6188C20.8977 11.924 21.017 12.1712 21.0942 12.3519C21.1328 12.4431 21.1609 12.5167 21.1819 12.5728C21.1924 12.6009 21.1995 12.6237 21.2065 12.643L21.2135 12.6675L21.217 12.6763V12.6798C21.3591 13.1778 21.0714 13.6952 20.575 13.8372C20.0838 13.9775 19.5716 13.6969 19.4242 13.2094L19.419 13.1954C19.4119 13.1761 19.3979 13.1393 19.3751 13.0866C19.3295 12.9797 19.2453 12.8043 19.1067 12.5693C18.8296 12.1011 18.3279 11.3926 17.456 10.521C16.5842 9.64948 15.8755 9.14969 15.4072 8.87085C15.1721 8.73232 14.9967 8.64814 14.8897 8.60254C14.8353 8.57975 14.7985 8.56572 14.7809 8.5587L14.7669 8.55344C14.2792 8.40614 13.9985 7.89407 14.1389 7.40304L14.1424 7.40831Z" fill="#083366"/>
</svg>
