<?xml version="1.0" encoding="utf-8"?>
<!-- Generator: Adobe Illustrator 28.1.0, SVG Export Plug-In . SVG Version: 6.00 Build 0)  -->
<svg version="1.1" id="Layer_1" xmlns="http://www.w3.org/2000/svg" xmlns:xlink="http://www.w3.org/1999/xlink" x="0px" y="0px"
	 viewBox="0 0 20 20" style="enable-background:new 0 0 20 20;" xml:space="preserve">

<g>
	<path fill="#083366" d="M10,13.42c-1.886,0-3.42-1.534-3.42-3.42S8.114,6.58,10,6.58s3.42,1.535,3.42,3.42S11.886,13.42,10,13.42z
		 M10,8.02c-1.092,0-1.98,0.888-1.98,1.98s0.888,1.98,1.98,1.98s1.98-0.889,1.98-1.98S11.092,8.02,10,8.02z"/>
</g>
<g>
	<path fill="#083366" d="M10,19.72c-0.903,0-1.401,0-1.864-0.191c-0.623-0.258-1.107-0.742-1.365-1.364
		c-0.14-0.337-0.17-0.692-0.183-1.025c-0.01-0.268-0.141-0.499-0.351-0.62c-0.21-0.123-0.477-0.12-0.714,0.005
		c-0.294,0.155-0.617,0.307-0.98,0.354c-0.667,0.088-1.327-0.089-1.862-0.499c-0.398-0.306-0.647-0.736-1.099-1.519
		c-0.453-0.786-0.701-1.216-0.766-1.71c-0.087-0.668,0.09-1.33,0.5-1.864c0.222-0.29,0.515-0.494,0.797-0.671
		C2.339,10.473,2.474,10.243,2.474,10c0-0.243-0.135-0.473-0.362-0.616c-0.281-0.176-0.573-0.38-0.796-0.67
		c-0.404-0.527-0.586-1.207-0.5-1.864C0.881,6.354,1.13,5.923,1.582,5.141c0.451-0.783,0.699-1.213,1.099-1.52
		c0.526-0.404,1.203-0.586,1.863-0.5C4.905,3.169,5.229,3.32,5.523,3.476C5.76,3.601,6.027,3.604,6.237,3.482
		s0.341-0.354,0.351-0.621c0.013-0.333,0.043-0.688,0.184-1.026c0.257-0.621,0.741-1.106,1.364-1.363C8.599,0.28,9.097,0.28,10,0.28
		s1.401,0,1.864,0.192c0.622,0.257,1.106,0.742,1.363,1.364c0.14,0.335,0.171,0.691,0.184,1.025c0.01,0.267,0.142,0.5,0.353,0.621
		c0.209,0.121,0.477,0.118,0.713-0.006c0.295-0.156,0.618-0.307,0.981-0.354c0.667-0.086,1.327,0.09,1.861,0.499
		c0.399,0.307,0.647,0.737,1.099,1.519c0.451,0.781,0.7,1.211,0.766,1.71c0.088,0.668-0.089,1.33-0.499,1.864
		c-0.222,0.289-0.514,0.493-0.796,0.671C17.661,9.527,17.525,9.757,17.525,10s0.136,0.473,0.362,0.615
		c0.282,0.177,0.574,0.381,0.797,0.671c0.41,0.534,0.587,1.195,0.499,1.863c-0.066,0.499-0.314,0.93-0.767,1.711
		c-0.45,0.782-0.699,1.213-1.099,1.519c-0.527,0.404-1.202,0.583-1.862,0.499c-0.362-0.048-0.686-0.199-0.98-0.355
		c-0.234-0.122-0.502-0.126-0.711-0.005c-0.212,0.122-0.344,0.354-0.354,0.622c-0.013,0.333-0.044,0.689-0.185,1.026
		c-0.257,0.621-0.74,1.105-1.362,1.362C11.4,19.72,10.903,19.72,10,19.72z M5.896,14.987c0.369,0,0.734,0.095,1.062,0.284
		c0.641,0.37,1.042,1.048,1.07,1.814c0.01,0.268,0.032,0.425,0.074,0.526c0.109,0.264,0.322,0.477,0.584,0.586
		C8.885,18.28,9.305,18.28,10,18.28s1.115,0,1.314-0.082c0.265-0.11,0.473-0.317,0.583-0.585c0.042-0.102,0.064-0.26,0.074-0.528
		c0.03-0.768,0.431-1.444,1.072-1.814c0.64-0.369,1.426-0.379,2.105-0.021c0.238,0.126,0.386,0.186,0.494,0.2
		c0.284,0.038,0.573-0.04,0.8-0.214c0.171-0.131,0.38-0.494,0.727-1.096c0.348-0.602,0.558-0.965,0.586-1.18
		c0.038-0.286-0.038-0.569-0.214-0.798c-0.067-0.088-0.193-0.186-0.42-0.329c-0.648-0.406-1.036-1.092-1.036-1.834
		s0.388-1.427,1.036-1.834c0.228-0.143,0.354-0.242,0.42-0.329c0.176-0.229,0.252-0.512,0.214-0.798
		c-0.028-0.214-0.238-0.577-0.585-1.178c-0.348-0.602-0.557-0.965-0.729-1.097c-0.225-0.172-0.514-0.25-0.797-0.213
		c-0.11,0.014-0.258,0.074-0.495,0.199c-0.679,0.358-1.466,0.351-2.107-0.02c-0.641-0.37-1.041-1.048-1.071-1.813
		c-0.01-0.27-0.032-0.427-0.073-0.527c-0.111-0.269-0.318-0.476-0.585-0.586v0C11.114,1.72,10.695,1.72,10,1.72
		s-1.115,0-1.313,0.082C8.42,1.913,8.212,2.12,8.103,2.387C8.06,2.489,8.038,2.647,8.028,2.915C8,3.68,7.599,4.358,6.958,4.729
		C6.314,5.1,5.527,5.107,4.85,4.749C4.613,4.624,4.465,4.564,4.356,4.55C4.071,4.509,3.783,4.59,3.558,4.764
		C3.386,4.896,3.176,5.258,2.83,5.86C2.481,6.462,2.272,6.825,2.244,7.038c-0.037,0.283,0.041,0.574,0.214,0.8
		c0.067,0.087,0.192,0.185,0.42,0.328C3.527,8.574,3.915,9.26,3.914,10c0,0.741-0.387,1.426-1.036,1.833
		c-0.228,0.143-0.353,0.241-0.419,0.328c-0.176,0.229-0.252,0.514-0.215,0.8c0.028,0.211,0.236,0.572,0.582,1.172
		c0.352,0.608,0.562,0.972,0.732,1.103c0.229,0.176,0.512,0.255,0.798,0.214c0.11-0.015,0.257-0.074,0.495-0.199
		C5.183,15.075,5.542,14.987,5.896,14.987z"/>
</g>
</svg>
