<svg width="28" height="28" viewBox="0 0 28 28" fill="none" xmlns="http://www.w3.org/2000/svg">
<path fill-rule="evenodd" clip-rule="evenodd" d="M3.94044 5.92949C3.5 6.557 3.5 8.42226 3.5 12.1528V13.99C3.5 20.5676 8.44545 23.7598 11.5483 25.1152C12.39 25.4828 12.8108 25.6667 14 25.6667C15.1892 25.6667 15.61 25.4828 16.4516 25.1152C19.5545 23.7598 24.5 20.5676 24.5 13.99V12.1528C24.5 8.42226 24.5 6.557 24.0596 5.92949C23.6192 5.30197 21.8653 4.70163 18.3576 3.50093L17.6894 3.27218C15.8608 2.64629 14.9466 2.33334 14 2.33334C13.0534 2.33334 12.1392 2.64629 10.3107 3.27218L9.6424 3.50093C6.13471 4.70163 4.38087 5.30197 3.94044 5.92949ZM17.5694 12.2494C17.8912 11.8889 17.8599 11.3358 17.4994 11.014C17.1389 10.6921 16.5858 10.7234 16.2639 11.0839L12.75 15.0196L11.7361 13.8839C11.4142 13.5234 10.861 13.4922 10.5006 13.8139C10.1401 14.1358 10.1088 14.6889 10.4306 15.0494L12.0973 16.9161C12.2633 17.1021 12.5007 17.2083 12.75 17.2083C12.9992 17.2083 13.2366 17.1021 13.4027 16.9161L17.5694 12.2494Z" fill="#083366"/>
</svg>
