<svg width="20" height="20" viewBox="0 0 20 20" fill="none" xmlns="http://www.w3.org/2000/svg">
<path d="M7.53841 18.7502C7.99865 18.7502 8.37174 18.3771 8.37174 17.9168C8.37174 17.4566 7.99865 17.0835 7.53841 17.0835C7.07817 17.0835 6.70508 17.4566 6.70508 17.9168C6.70508 18.3771 7.07817 18.7502 7.53841 18.7502Z" stroke="#083366" stroke-width="1.5" stroke-linecap="round" stroke-linejoin="round"/>
<path d="M16.7064 18.7502C17.1666 18.7502 17.5397 18.3771 17.5397 17.9168C17.5397 17.4566 17.1666 17.0835 16.7064 17.0835C16.2461 17.0835 15.873 17.4566 15.873 17.9168C15.873 18.3771 16.2461 18.7502 16.7064 18.7502Z" stroke="#083366" stroke-width="1.5" stroke-linecap="round" stroke-linejoin="round"/>
<path d="M0.873047 1.25H4.20638L6.43971 12.4083C6.51592 12.792 6.72464 13.1366 7.02933 13.3819C7.33403 13.6272 7.71529 13.7575 8.10638 13.75H16.2064C16.5975 13.7575 16.9787 13.6272 17.2834 13.3819C17.5881 13.1366 17.7968 12.792 17.873 12.4083L19.2064 5.41667H5.03971" stroke="#083366" stroke-width="1.5" stroke-linecap="round" stroke-linejoin="round"/>
</svg>
