<?xml version="1.0" encoding="utf-8"?>
<!-- Generator: Adobe Illustrator 28.1.0, SVG Export Plug-In . SVG Version: 6.00 Build 0)  -->
<svg version="1.1" id="Layer_1" xmlns="http://www.w3.org/2000/svg" xmlns:xlink="http://www.w3.org/1999/xlink" x="0px" y="0px"
	 viewBox="0 0 20 20" style="enable-background:new 0 0 20 20;" xml:space="preserve">

<g>
	<path fill="#083366" d="M9.466,7.19c0-0.333-0.064-0.657-0.192-0.964C9.146,5.919,8.963,5.644,8.728,5.409
		c-0.952-0.952-2.612-0.952-3.564,0C4.695,5.878,4.426,6.527,4.426,7.19c0,0.673,0.262,1.306,0.738,1.782h0
		c0.477,0.476,1.109,0.738,1.782,0.738c0.332,0,0.656-0.065,0.964-0.192c0.306-0.126,0.581-0.31,0.818-0.546
		c0.234-0.234,0.417-0.509,0.546-0.818C9.402,7.848,9.466,7.523,9.466,7.19z M7.945,7.603C7.889,7.736,7.81,7.854,7.711,7.954
		c-0.102,0.102-0.22,0.18-0.351,0.234C6.957,8.354,6.488,8.259,6.183,7.954C5.978,7.751,5.867,7.479,5.867,7.19
		c0-0.284,0.115-0.562,0.316-0.763c0.408-0.408,1.119-0.408,1.527,0c0.101,0.101,0.18,0.218,0.234,0.35
		C7.998,6.909,8.026,7.048,8.026,7.19C8.026,7.334,7.998,7.473,7.945,7.603z"/>
	<path fill="#083366" d="M16.377,9.059c-0.281-0.281-0.736-0.281-1.018,0l-6.281,6.282c-0.281,0.281-0.281,0.736,0,1.018
		C9.219,16.5,9.404,16.57,9.588,16.57s0.369-0.07,0.509-0.211l6.28-6.281C16.659,9.796,16.659,9.34,16.377,9.059z"/>
	<path fill="#083366" d="M15.878,4.593l-1.646-1.646c-1.43-1.431-2.217-2.218-3.299-2.528c-1.081-0.31-2.166-0.06-4.138,0.395
		L5.69,1.068c-1.689,0.39-2.62,0.604-3.319,1.303C1.673,3.07,1.458,4.001,1.068,5.69L0.813,6.794
		c-0.455,1.971-0.706,3.057-0.395,4.138c0.31,1.081,1.097,1.869,2.526,3.298l0.001,0.001l1.647,1.646
		c2.557,2.558,3.841,3.841,5.643,3.841s3.086-1.283,5.643-3.841c2.558-2.557,3.841-3.841,3.841-5.643
		C19.719,8.434,18.436,7.15,15.878,4.593z M14.861,14.861c-4.552,4.551-4.695,4.554-9.249,0l-1.647-1.646l-0.001-0.002
		c-1.301-1.301-1.954-1.954-2.161-2.677s0-1.624,0.415-3.417l0.255-1.105C2.835,4.436,2.998,3.78,3.389,3.389
		c0.392-0.391,1.047-0.554,2.624-0.918l1.106-0.255c1.793-0.414,2.695-0.62,3.417-0.415c0.724,0.208,1.376,0.861,2.678,2.163
		l1.646,1.647c2.276,2.276,3.419,3.419,3.419,4.625C18.28,11.442,17.137,12.585,14.861,14.861z"/>
</g>
</svg>
