<?xml version="1.0" encoding="UTF-8"?>
<svg id="Layer_1" xmlns="http://www.w3.org/2000/svg" version="1.1" viewBox="0 0 20 20">
  <!-- Generator: Adobe Illustrator 29.1.0, SVG Export Plug-In . SVG Version: 2.1.0 Build 142)  -->
  <defs>
    <style>
      .st0 {
        fill: #083366;
      }
    </style>
  </defs>
  <path class="st0" d="M18.293,3.294h-3.093c-.529-.014-.987-.344-1.197-.929l-.104-.312c-.097-.289-.15-.436-.217-.563-.324-.622-.931-1.059-1.622-1.169-.145-.023-.305-.028-.627-.028h-3.291c-.322,0-.482.005-.625.028-.692.11-1.299.547-1.625,1.171-.066.128-.122.278-.224.583l-.126.378c-.18.498-.639.828-1.164.841h-.095s-3.002,0-3.002,0c-.4,0-.725.325-.725.725s.325.725.725.725h17.011c.4,0,.725-.325.725-.725s-.324-.725-.725-.725ZM6.905,2.949l.14-.418c.064-.192.092-.29.134-.37.113-.217.325-.37.567-.409.091-.015.192-.01.396-.01h3.291c.202,0,.305-.005.397.01.241.039.453.191.565.407.041.079.067.173.135.375l.139.411c.044.122.098.237.157.349h-6.076c.058-.111.112-.225.155-.345Z"/>
  <path class="st0" d="M16.673,5.797c-.368-.018-.745.275-.771.675l-.46,6.913c-.165,2.457-.247,3.69-.904,4.304-.655.615-1.895.615-4.363.615h-.774c-2.468,0-3.707,0-4.364-.615-.656-.614-.739-1.85-.903-4.312l-.46-6.904c-.027-.399-.361-.698-.772-.675-.399.027-.702.373-.675.772l.461,6.906c.184,2.752.285,4.268,1.359,5.272,1.075,1.006,2.595,1.006,5.355,1.006h.774c2.76,0,4.28,0,5.354-1.006,1.074-1.004,1.176-2.518,1.36-5.275l.46-6.903c.026-.4-.276-.745-.676-.772Z"/>
  <path class="st0" d="M7.785,14.75c.024,0,.049,0,.073-.003.398-.04.689-.396.649-.794l-.5-5.003c-.04-.398-.398-.683-.793-.649-.398.04-.689.395-.649.793l.5,5.003c.037.374.353.652.72.652Z"/>
  <path class="st0" d="M11.789,14.75c.368,0,.683-.278.721-.652l.501-5.003c.04-.398-.251-.754-.649-.793-.397-.043-.754.25-.794.649l-.501,5.003c-.04.398.251.754.649.794.024.002.049.003.073.003Z"/>
</svg>