<?xml version="1.0" encoding="utf-8"?>
<!-- Generator: Adobe Illustrator 28.1.0, SVG Export Plug-In . SVG Version: 6.00 Build 0)  -->
<svg version="1.1" id="Layer_1" xmlns="http://www.w3.org/2000/svg" xmlns:xlink="http://www.w3.org/1999/xlink" x="0px" y="0px"
	 viewBox="0 0 20 20" style="enable-background:new 0 0 20 20;" xml:space="preserve">

<g>
	<g>
		<path fill="#083366" d="M15,15.7c-1.9,0-3.4-1.5-3.4-3.4s1.5-3.4,3.4-3.4s3.4,1.5,3.4,3.4S16.9,15.7,15,15.7z M15,10.3
			c-1.1,0-2,0.9-2,2s0.9,2,2,2s2-0.9,2-2S16.1,10.3,15,10.3z"/>
	</g>
	<g>
		<path fill="#083366" d="M4.8,10.7c-1.8,0-3.2-1.4-3.2-3.2S3,4.3,4.8,4.3S8,5.7,8,7.5S6.6,10.7,4.8,10.7z M4.8,5.7
			C3.8,5.7,3,6.5,3,7.5s0.8,1.8,1.8,1.8s1.8-0.8,1.8-1.8S5.8,5.7,4.8,5.7z"/>
	</g>
	<g>
		<path fill="#083366" d="M15,8c-0.4,0-0.7-0.3-0.7-0.7V1c0-0.4,0.3-0.7,0.7-0.7s0.7,0.3,0.7,0.7v6.3C15.7,7.7,15.4,8,15,8z"/>
	</g>
	<g>
		<path fill="#083366" d="M5,19.7c-0.4,0-0.7-0.3-0.7-0.7v-6.3C4.2,12.3,4.6,12,5,12s0.7,0.3,0.7,0.7V19C5.7,19.4,5.4,19.7,5,19.7z"/>
	</g>
	<g>
		<path fill="#083366" d="M15,19.7c-0.4,0-0.7-0.3-0.7-0.7v-1.8c0-0.4,0.3-0.7,0.7-0.7s0.7,0.3,0.7,0.7V19C15.7,19.4,15.4,19.7,15,19.7
			z"/>
	</g>
	<g>
		<path fill="#083366" d="M5,3.5c-0.4,0-0.7-0.3-0.7-0.7V1c0-0.4,0.3-0.7,0.7-0.7S5.7,0.6,5.7,1v1.8C5.7,3.2,5.4,3.5,5,3.5z"/>
	</g>
</g>
</svg>
