<svg width="28" height="28" viewBox="0 0 28 28" fill="none" xmlns="http://www.w3.org/2000/svg">
<path fill-rule="evenodd" clip-rule="evenodd" d="M13.9431 3.311C11.2096 1.91625 8.83663 1.6345 7.66238 2.8105C5.64288 4.83 7.92838 10.3915 12.7689 15.2338C17.6094 20.0743 23.1709 22.3597 25.1904 20.3402C26.3664 19.166 26.0829 16.7913 24.6899 14.0595C24.4379 14.1033 24.1614 14.1085 23.8639 14.0543C22.6931 13.8443 20.8451 12.943 17.9524 10.0503C15.0596 7.1575 14.1584 5.3095 13.9484 4.13875C13.8941 3.8395 13.8994 3.563 13.9431 3.31275V3.311ZM16.2741 13.4785C15.7894 13.9633 15.0054 13.9633 14.5206 13.4785C14.0359 12.9938 14.0359 12.2098 14.5206 11.725C15.0054 11.2403 15.7894 11.2403 16.2741 11.725C16.7589 12.2098 16.7589 12.9938 16.2741 13.4785ZM11.0154 8.21975C11.5001 8.7045 12.2841 8.7045 12.7689 8.21975C13.2536 7.735 13.2536 6.951 12.7689 6.46625C12.2841 5.9815 11.5001 5.9815 11.0154 6.46625C10.5306 6.951 10.5306 7.735 11.0154 8.21975ZM21.5329 16.9837C21.0481 17.4685 20.2641 17.4685 19.7794 16.9837C19.2946 16.499 19.2946 15.715 19.7794 15.2303C20.2641 14.7455 21.0481 14.7455 21.5329 15.2303C22.0176 15.715 22.0176 16.499 21.5329 16.9837ZM15.7719 3.6645C18.0381 2.23125 21.0726 2.50075 23.0484 4.4765L23.5244 4.9525C25.5001 6.92825 25.7696 9.96275 24.3364 12.229C24.2891 12.2343 24.2419 12.2325 24.1929 12.2238C23.5769 12.1135 22.0631 11.5308 19.2666 8.73425C16.4701 5.93775 15.8891 4.424 15.7771 3.808C15.7684 3.759 15.7666 3.71175 15.7719 3.6645ZM6.47413 12.3148C6.79963 11.9175 6.74188 11.3313 6.34463 11.0058C5.94738 10.6803 5.36113 10.738 5.03563 11.1353L2.28113 14.49C1.95563 14.8873 2.01338 15.4735 2.41063 15.799C2.80788 16.1245 3.39238 16.0668 3.71963 15.6695L6.47413 12.3148ZM10.7966 18.5185C11.1589 18.1562 11.1589 17.5665 10.7966 17.2043C10.4344 16.842 9.84463 16.842 9.48238 17.2043L4.37413 22.3125C4.01188 22.6747 4.01188 23.2645 4.37413 23.6268C4.73638 23.989 5.32613 23.989 5.68838 23.6268L10.7966 18.5185ZM16.9916 21.6527C17.3171 22.05 17.2594 22.6363 16.8621 22.9618L13.5074 25.7145C13.1101 26.04 12.5239 25.9822 12.1984 25.585C11.8729 25.1877 11.9306 24.6015 12.3279 24.276L15.6826 21.5232C16.0799 21.1977 16.6661 21.2555 16.9916 21.6527Z" fill="#083366"/>
</svg>
