<?xml version="1.0" encoding="utf-8"?>
<!-- Generator: Adobe Illustrator 28.1.0, SVG Export Plug-In . SVG Version: 6.00 Build 0)  -->
<svg version="1.1" id="Layer_1" xmlns="http://www.w3.org/2000/svg" xmlns:xlink="http://www.w3.org/1999/xlink" x="0px" y="0px"
	 viewBox="0 0 20 20" style="enable-background:new 0 0 20 20;" xml:space="preserve">
<style type="text/css">
	.st0{fill:#083366;}
</style>
<g>
	<path class="st0" d="M7.6,4.9c-0.6,0.6-1,1.5-1,2.4s0.4,1.8,1,2.4c0.6,0.6,1.5,1,2.4,1c0.9,0,1.8-0.4,2.4-1c0.6-0.6,1-1.5,1-2.4
		s-0.4-1.8-1-2.4C11.1,3.6,8.9,3.6,7.6,4.9z M11.4,8.7c-0.7,0.7-2.1,0.7-2.8,0C8.2,8.3,8,7.8,8,7.3c0-0.5,0.2-1,0.6-1.4
		C9,5.5,9.5,5.3,10,5.3c0.5,0,1,0.2,1.4,0.6C11.8,6.3,12,6.8,12,7.3S11.8,8.3,11.4,8.7z"/>
	<path class="st0" d="M16.9,3.1C15,1.3,12.6,0.3,10,0.3c-2.6,0-5,1-6.9,2.8C1.3,5,0.3,7.4,0.3,10c0,2.6,1,5,2.8,6.9s4.3,2.8,6.9,2.8
		c2.6,0,5-1,6.9-2.8c1.8-1.8,2.8-4.3,2.8-6.9C19.7,7.4,18.7,5,16.9,3.1z M5.4,16.9c0.2-2,0.8-3.4,4.6-3.4c3.9,0,4.5,1.5,4.6,3.4
		c-1.4,0.9-3,1.4-4.6,1.4C8.3,18.3,6.7,17.8,5.4,16.9z M15.9,15.8C15.5,13.7,14.2,12,10,12c-4.2,0-5.5,1.7-5.9,3.8
		c-1.5-1.6-2.4-3.6-2.4-5.8c0-2.2,0.9-4.3,2.4-5.9C5.7,2.6,7.8,1.7,10,1.7c2.2,0,4.3,0.9,5.9,2.4c1.6,1.6,2.4,3.6,2.4,5.9
		C18.3,12.2,17.4,14.2,15.9,15.8z"/>
</g>
</svg>
