<svg width="15" height="18" viewBox="0 0 15 18" fill="none" xmlns="http://www.w3.org/2000/svg">
<path d="M7.50093 8.35256C5.36365 8.35256 3.625 6.61391 3.625 4.47663C3.625 2.33936 5.36365 0.600708 7.50093 0.600708C9.6382 0.600708 11.3769 2.33936 11.3769 4.47663C11.3769 6.61391 9.6382 8.35256 7.50093 8.35256ZM7.50093 1.77313C6.00978 1.77313 4.79742 2.98549 4.79742 4.47663C4.79742 5.96778 6.00978 7.18014 7.50093 7.18014C8.99207 7.18014 10.2044 5.96778 10.2044 4.47663C10.2044 2.98549 8.99207 1.77313 7.50093 1.77313Z" fill="#083366"/>
<path d="M7.5 17.3993C3.29406 17.3993 0 15.6372 0 13.3879C0 11.1386 3.29406 9.37646 7.5 9.37646C11.7059 9.37646 15 11.1386 15 13.3879C15 15.6372 11.7059 17.3993 7.5 17.3993ZM7.5 10.5489C3.77084 10.5489 1.17155 12.0461 1.17155 13.3887C1.17155 14.7314 3.77084 16.2286 7.5 16.2286C11.2292 16.2286 13.8276 14.7314 13.8276 13.3887C13.8276 12.0461 11.2292 10.5489 7.5 10.5489Z" fill="#083366"/>
</svg>
