<svg width="33" height="11" viewBox="0 0 33 11" fill="none" xmlns="http://www.w3.org/2000/svg">
<path fill-rule="evenodd" clip-rule="evenodd" d="M23.9886 0.767521C23.4361 0.549435 22.4751 0.311523 21.7126 0.311523C19.1127 0.311523 17.2834 1.60814 17.2609 3.54052C17.2425 5.03994 18.6041 5.79202 19.5861 6.33442L19.6057 6.34523C20.5891 6.88715 20.8587 7.10524 20.8534 7.54404C20.8468 8.16129 20.0947 8.51552 19.2184 8.51552C18.2615 8.51552 17.787 8.36617 16.6675 7.89695L16.2022 10.0448C17.3019 10.4346 17.7883 10.5484 19.1365 10.5682C22.0919 10.5682 23.493 8.93054 23.51 7.27045C23.5259 6.47081 23.3594 5.73459 22.0919 4.91512C21.7741 4.70932 21.4588 4.53527 21.171 4.37619C20.4526 3.97945 19.9031 3.67595 19.9031 3.20612C19.9031 2.80167 20.5243 2.38003 21.5288 2.36286C22.2202 2.3536 23.0421 2.62456 23.5418 2.82546L23.9886 0.767521ZM12.8647 0.495251L10.1869 0.492614L7.50247 7.2123L7.24535 5.84305C6.8288 3.62486 6.56258 2.20707 6.44507 1.58965C6.30629 0.854756 5.87408 0.496579 5.13392 0.496579H0.855469V0.767521C1.90228 1.09136 2.64906 1.32927 3.09713 1.48391C3.60071 1.65705 3.86242 2.02318 3.99458 2.54659C4.6593 5.17284 5.33251 7.79693 6.01419 10.4188L8.72506 10.4215L12.8647 0.495251ZM30.2271 10.4201L29.9297 8.93319H26.6069L26.0781 10.4096L23.4149 10.4148C24.6827 7.36579 25.9534 4.31788 27.2268 1.2711C27.4435 0.754297 27.8281 0.491286 28.3952 0.493923C28.8288 0.497888 29.5357 0.497888 30.5179 0.495251L32.5771 10.4162L30.2271 10.4201ZM27.3551 6.89639H29.4963L28.6965 3.1691L27.3551 6.89639ZM16.5445 0.495251L14.4271 10.4188L11.8788 10.4162L13.9936 0.492614L16.5445 0.495251Z" fill="#083366"/>
</svg>
