<svg width="15" height="15" viewBox="0 0 15 15" fill="none" xmlns="http://www.w3.org/2000/svg">
<path d="M0 14.1541L0.985475 10.5539C0.377366 9.50009 0.0578317 8.30548 0.0584158 7.0805C0.0601683 3.25076 3.17665 0.134277 7.00581 0.134277C8.86402 0.134862 10.6083 0.858634 11.9203 2.17182C13.2318 3.48501 13.9538 5.23048 13.9532 7.08693C13.9515 10.9173 10.835 14.0337 7.00581 14.0337C5.84334 14.0332 4.6978 13.7417 3.68312 13.1879L0 14.1541ZM3.85369 11.9302C4.83274 12.5114 5.7674 12.8596 7.00347 12.8602C10.186 12.8602 12.7785 10.27 12.7802 7.08576C12.7814 3.89509 10.2012 1.30844 7.00815 1.30727C3.82332 1.30727 1.23257 3.89743 1.23141 7.08109C1.23082 8.38084 1.61169 9.35405 2.25135 10.3722L1.66777 12.5032L3.85369 11.9302ZM10.5055 8.73835C10.4623 8.66591 10.3466 8.62268 10.1725 8.53564C9.99904 8.4486 9.14558 8.02859 8.98611 7.97076C8.82722 7.91293 8.71155 7.88372 8.59531 8.0578C8.47964 8.2313 8.14667 8.62268 8.04561 8.73835C7.94455 8.85401 7.84291 8.86861 7.66942 8.78157C7.49592 8.69454 6.9363 8.51169 6.27328 7.91994C5.75746 7.45962 5.40872 6.89124 5.30766 6.71716C5.2066 6.54366 5.29715 6.44961 5.3836 6.36316C5.46188 6.28547 5.5571 6.16046 5.64414 6.05881C5.73235 5.95834 5.76097 5.8859 5.81939 5.76965C5.87722 5.65399 5.84859 5.55235 5.80478 5.46531C5.76097 5.37885 5.41398 4.52423 5.26969 4.17665C5.12833 3.83843 4.98521 3.88399 4.87889 3.87873L4.54592 3.87289C4.43026 3.87289 4.24216 3.91612 4.08327 4.0902C3.92438 4.26428 3.47574 4.6837 3.47574 5.53833C3.47574 6.39295 4.09787 7.21837 4.18433 7.33403C4.27137 7.44969 5.40814 9.20334 7.14951 9.95515C7.56368 10.1339 7.88731 10.2408 8.13908 10.3208C8.555 10.4529 8.93353 10.4342 9.23262 10.3898C9.56618 10.3401 10.2596 9.96975 10.4044 9.56435C10.5493 9.15836 10.5493 8.81078 10.5055 8.73835Z" fill="#D1EAFD"/>
</svg>
