<svg width="103" height="42" viewBox="0 0 103 42" fill="none" xmlns="http://www.w3.org/2000/svg">
<path d="M57.1549 28.174C55.9128 27.4518 54.9344 26.4678 54.2196 25.222C53.5048 23.9762 53.1465 22.6098 53.1465 21.1171C53.1465 19.6243 53.5048 18.2505 54.2196 17.014C54.9344 15.7775 55.9128 14.7972 57.1549 14.0787C58.3969 13.3602 59.769 13 61.2765 13C62.7841 13 64.145 13.3602 65.3871 14.0787C66.6291 14.799 67.6094 15.7775 68.3279 17.014C69.0464 18.2523 69.4066 19.6188 69.4066 21.1171C69.4066 22.6153 69.0464 23.9762 68.3279 25.222C67.6075 26.4678 66.6273 27.4518 65.3871 28.174C64.145 28.8981 62.7767 29.2582 61.2765 29.2582C59.7764 29.2582 58.3969 28.8962 57.1549 28.174ZM63.7959 25.6583C64.5683 25.196 65.1828 24.5666 65.6414 23.7683C66.1 22.9699 66.3283 22.0918 66.3283 21.1301C66.3283 20.1683 66.1 19.2772 65.6414 18.4807C65.1828 17.6823 64.5664 17.0548 63.7904 16.5962C63.0143 16.1377 62.177 15.9093 61.2747 15.9093C60.3724 15.9093 59.5332 16.1377 58.759 16.5962C57.9829 17.0548 57.3665 17.6823 56.908 18.4807C56.4494 19.279 56.221 20.1628 56.221 21.1301C56.221 22.0973 56.4494 22.9718 56.908 23.7683C57.3665 24.5666 57.9829 25.196 58.759 25.6583C59.535 26.1206 60.3724 26.3508 61.2747 26.3508C62.177 26.3508 63.0255 26.1206 63.7959 25.6583Z" fill="#1A94F7"/>
<path d="M74.5915 28.5952H72.7832C72.5084 28.5952 72.3691 28.4578 72.3691 28.1812V14.0766C72.3691 13.8018 72.5065 13.6626 72.7832 13.6626H74.5915C74.8663 13.6626 75.0055 13.8 75.0055 14.0766V28.1812C75.0055 28.456 74.8681 28.5952 74.5915 28.5952Z" fill="#1A94F7"/>
<path d="M90.537 17.1441V28.254C90.537 28.4823 90.3513 28.668 90.1229 28.668H88.6451C88.4037 28.668 88.2552 28.5473 88.2013 28.306L88.0565 27.1697C87.6165 27.7137 87.0818 28.1426 86.4543 28.4563C85.8268 28.7701 85.1138 28.9261 84.3155 28.9261C83.1644 28.9261 82.121 28.6383 81.1797 28.0627C80.2402 27.4872 79.4976 26.7074 78.9536 25.7234C78.4096 24.7394 78.1367 23.6533 78.1367 22.4688C78.1367 21.2843 78.4096 20.2093 78.9536 19.2253C79.4976 18.2413 80.2421 17.4616 81.1853 16.8897C82.1284 16.3179 83.1718 16.032 84.3155 16.032C85.1287 16.032 85.8472 16.1861 86.4747 16.4961C87.1022 16.8062 87.6351 17.2369 88.0751 17.7883C88.0751 17.7883 89.3469 17.1831 90.0784 16.8507C90.2919 16.7542 90.5351 16.9102 90.5351 17.1441H90.537ZM86.2445 25.8812C86.8052 25.5471 87.2471 25.0866 87.5664 24.4962C87.8857 23.9077 88.0472 23.2449 88.0472 22.5078C88.0472 21.7707 87.8894 21.1024 87.572 20.5027C87.2545 19.903 86.8182 19.4314 86.2593 19.0879C85.7005 18.7445 85.0748 18.5718 84.3786 18.5718C83.6824 18.5718 83.0734 18.7426 82.5294 19.0824C81.9855 19.424 81.5603 19.8937 81.254 20.4934C80.9476 21.0931 80.7935 21.7633 80.7935 22.5078C80.7935 23.2523 80.9439 23.917 81.2428 24.5018C81.5417 25.0866 81.965 25.5471 82.509 25.8812C83.053 26.2154 83.6694 26.3825 84.3582 26.3825C85.047 26.3825 85.6819 26.2154 86.2445 25.8812Z" fill="#1A94F7"/>
<path d="M95.7559 28.368C94.9576 28.0505 94.2242 27.6068 93.5559 27.035C93.4463 26.9458 93.3906 26.8456 93.3906 26.736C93.3906 26.6469 93.4278 26.5541 93.5039 26.4576L94.3616 25.3622C94.4582 25.2452 94.5584 25.1858 94.6605 25.1858C94.7367 25.1858 94.8295 25.2229 94.939 25.299C95.4069 25.6369 95.9379 25.9136 96.5301 26.1308C97.1224 26.348 97.7017 26.4557 98.2661 26.4557C98.8305 26.4557 99.2408 26.3257 99.5787 26.0677C99.9166 25.8096 100.086 25.4698 100.086 25.0502C100.086 24.768 100 24.5285 99.8275 24.3317C99.6548 24.1349 99.3912 23.9586 99.0366 23.7989C98.6819 23.6411 98.1844 23.461 97.5438 23.2623C96.4837 22.9319 95.6185 22.4714 94.9502 21.8829C94.2818 21.2943 93.9476 20.496 93.9476 19.4916C93.9476 18.8641 94.1054 18.2774 94.4229 17.7297C94.7404 17.182 95.2194 16.742 95.8636 16.4078C96.5079 16.0736 97.2988 15.9065 98.2345 15.9065C98.8954 15.9065 99.5731 16.0327 100.269 16.2834C100.966 16.534 101.571 16.8979 102.087 17.3732C102.183 17.4623 102.232 17.5589 102.232 17.6628C102.232 17.7668 102.187 17.8634 102.098 17.9525L101.003 19.0887C100.906 19.1852 100.806 19.2335 100.704 19.2335C100.628 19.2335 100.535 19.1964 100.425 19.1203C100.115 18.8863 99.7588 18.6951 99.3559 18.5466C98.953 18.3981 98.5483 18.3238 98.1417 18.3238C97.6107 18.3238 97.2041 18.4408 96.9182 18.6747C96.6322 18.9086 96.4893 19.2057 96.4893 19.564C96.4893 19.8054 96.5673 20.0151 96.7214 20.1934C96.8755 20.3735 97.128 20.5443 97.4751 20.7095C97.8223 20.8748 98.2995 21.0511 98.9066 21.2368C99.6771 21.4782 100.332 21.7511 100.869 22.0574C101.406 22.3637 101.833 22.7573 102.15 23.2401C102.468 23.7228 102.625 24.315 102.625 25.0168C102.625 25.7186 102.453 26.3109 102.109 26.8976C101.764 27.4824 101.266 27.954 100.617 28.3086C99.9649 28.6632 99.2055 28.8414 98.3385 28.8414C97.4157 28.8414 96.5543 28.6836 95.7559 28.3661V28.368Z" fill="#1A94F7"/>
<path d="M16.7837 2.47113L20.1293 0.44744C20.6231 0.148527 21.1782 0 21.7352 0C22.2922 0 22.8473 0.148527 23.3412 0.44744L26.6868 2.47113C27.2363 2.80347 27.2363 3.6018 26.6868 3.93413L23.3412 5.95783C22.8473 6.25674 22.2922 6.40527 21.7352 6.40527C21.1782 6.40527 20.6231 6.25674 20.1293 5.95783L16.7837 3.93413C16.2341 3.6018 16.2341 2.80347 16.7837 2.47113ZM7.5545 5.89656L9.17532 6.87684C9.9588 7.35028 10.9409 7.35028 11.7244 6.87684L13.3452 5.89656C13.6998 5.68305 13.6998 5.16877 13.3452 4.95341L11.7244 3.97312C10.9409 3.49969 9.9588 3.49969 9.17532 3.97312L7.5545 4.95341C7.19989 5.16692 7.19989 5.68119 7.5545 5.89656ZM2.80718 12.1533L4.29989 13.0556C5.12422 13.5532 6.15648 13.5532 6.98081 13.0556L7.94439 12.4726C8.54964 12.1069 9.30899 12.1069 9.91424 12.4726L13.3879 14.5743C14.6523 15.3392 16.2378 15.3392 17.504 14.5743L20.7939 12.584C21.0835 12.4095 21.4085 12.3204 21.7352 12.313C22.062 12.3204 22.3869 12.4095 22.6765 12.584L25.9664 14.5743C27.2308 15.3392 28.8163 15.3392 30.0825 14.5743L33.5562 12.4726C34.1614 12.1069 34.9208 12.1069 35.526 12.4726L36.4896 13.0556C37.3139 13.5532 38.3462 13.5532 39.1705 13.0556L40.6632 12.1533C41.0476 11.9212 41.0476 11.3642 40.6632 11.1322L39.1705 10.2299C38.3462 9.7323 37.3139 9.7323 36.4896 10.2299L35.526 10.8128C34.9208 11.1786 34.1614 11.1786 33.5562 10.8128L30.0825 8.71117C28.8181 7.94625 27.2326 7.94625 25.9664 8.71117L22.6765 10.7014C22.3869 10.876 22.062 10.9651 21.7352 10.9725C21.4085 10.9651 21.0835 10.876 20.7939 10.7014L17.504 8.71117C16.2397 7.94625 14.6541 7.94625 13.3879 8.71117L9.91424 10.8128C9.30899 11.1786 8.54964 11.1786 7.94439 10.8128L6.98081 10.2299C6.15648 9.7323 5.12422 9.7323 4.29989 10.2299L2.80718 11.1322C2.42286 11.3642 2.42286 11.9212 2.80718 12.1533ZM30.1252 5.89656L31.746 6.87684C32.5295 7.35028 33.5116 7.35028 34.2951 6.87684L35.9159 5.89656C36.2705 5.68305 36.2705 5.16877 35.9159 4.95341L34.2951 3.97312C33.5116 3.49969 32.5295 3.49969 31.746 3.97312L30.1252 4.95341C29.7706 5.16692 29.7706 5.68119 30.1252 5.89656ZM43.1307 20.391L39.3451 18.1C38.0473 17.3146 36.4228 17.3146 35.125 18.1L32.6297 19.6094C31.4935 20.2982 30.0676 20.2982 28.9314 19.6094L25.0734 17.2757C24.0467 16.6537 22.8937 16.3381 21.7371 16.3195C20.5804 16.3381 19.4275 16.6556 18.4008 17.2757L14.5427 19.6094C13.4065 20.2982 11.9806 20.2982 10.8444 19.6094L8.34913 18.1C7.05137 17.3146 5.42684 17.3146 4.12908 18.1L0.343471 20.391C0.115109 20.5303 0 20.7642 0 21C0 21.2358 0.115109 21.4716 0.343471 21.609L4.12908 23.9C5.42684 24.6854 7.05137 24.6854 8.34913 23.9L10.8444 22.3906C11.9806 21.7018 13.4065 21.7018 14.5427 22.3906L18.4008 24.7243C19.4275 25.3463 20.5804 25.6619 21.7371 25.6805C22.8937 25.6619 24.0467 25.3444 25.0734 24.7243L28.9314 22.3906C30.0676 21.7018 31.4935 21.7018 32.6297 22.3906L35.125 23.9C36.4228 24.6854 38.0473 24.6854 39.3451 23.9L43.1307 21.609C43.359 21.4697 43.4741 21.2358 43.4741 21C43.4741 20.7642 43.359 20.5284 43.1307 20.391ZM26.6868 38.0659L23.3412 36.0422C22.8473 35.7433 22.2922 35.5947 21.7352 35.5947C21.1782 35.5947 20.6231 35.7433 20.1293 36.0422L16.7837 38.0659C16.2341 38.3982 16.2341 39.1965 16.7837 39.5289L20.1293 41.5526C20.6231 41.8515 21.1782 42 21.7352 42C22.2922 42 22.8473 41.8515 23.3412 41.5526L26.6868 39.5289C27.2363 39.1965 27.2363 38.3982 26.6868 38.0659ZM35.9159 36.1016L34.2951 35.1213C33.5116 34.6479 32.5295 34.6479 31.746 35.1213L30.1252 36.1016C29.7706 36.3151 29.7706 36.8294 30.1252 37.0447L31.746 38.025C32.5295 38.4985 33.5116 38.4985 34.2951 38.025L35.9159 37.0447C36.2705 36.8312 36.2705 36.3169 35.9159 36.1016ZM40.6632 29.8448L39.1705 28.9425C38.3462 28.445 37.3139 28.445 36.4896 28.9425L35.526 29.5255C34.9208 29.8913 34.1614 29.8913 33.5562 29.5255L30.0825 27.4238C28.8181 26.6589 27.2326 26.6589 25.9664 27.4238L22.6765 29.4141C22.3869 29.5886 22.062 29.6777 21.7352 29.6852C21.4085 29.6777 21.0835 29.5886 20.7939 29.4141L17.504 27.4238C16.2397 26.6589 14.6541 26.6589 13.3879 27.4238L9.91424 29.5255C9.30899 29.8913 8.54964 29.8913 7.94439 29.5255L6.98081 28.9425C6.15648 28.445 5.12422 28.445 4.29989 28.9425L2.80718 29.8448C2.42286 30.0769 2.42286 30.6339 2.80718 30.866L4.29989 31.7683C5.12422 32.2658 6.15648 32.2658 6.98081 31.7683L7.94439 31.1853C8.54964 30.8196 9.30899 30.8196 9.91424 31.1853L13.3879 33.287C14.6523 34.0519 16.2378 34.0519 17.504 33.287L20.7939 31.2967C21.0835 31.1222 21.4085 31.0331 21.7352 31.0256C22.062 31.0331 22.3869 31.1222 22.6765 31.2967L25.9664 33.287C27.2308 34.0519 28.8163 34.0519 30.0825 33.287L33.5562 31.1853C34.1614 30.8196 34.9208 30.8196 35.526 31.1853L36.4896 31.7683C37.3139 32.2658 38.3462 32.2658 39.1705 31.7683L40.6632 30.866C41.0476 30.6339 41.0476 30.0769 40.6632 29.8448ZM13.3471 36.1016L11.7263 35.1213C10.9428 34.6479 9.96066 34.6479 9.17717 35.1213L7.55636 36.1016C7.20175 36.3151 7.20175 36.8294 7.55636 37.0447L9.17717 38.025C9.96066 38.4985 10.9428 38.4985 11.7263 38.025L13.3471 37.0447C13.7017 36.8312 13.7017 36.3169 13.3471 36.1016Z" fill="#1A94F7"/>
</svg>
