<svg width="141" height="56" viewBox="0 0 141 56" fill="none" xmlns="http://www.w3.org/2000/svg">
<path d="M76.2742 28.839C74.5062 27.8103 73.1134 26.4086 72.0959 24.6341C71.0784 22.8595 70.5684 20.9131 70.5684 18.7868C70.5684 16.6606 71.0784 14.7036 72.0959 12.9423C73.1134 11.1809 74.5062 9.78459 76.2742 8.76113C78.0423 7.73766 79.9953 7.22461 82.1413 7.22461C84.2872 7.22461 86.2244 7.73766 87.9925 8.76113C89.7605 9.78724 91.1559 11.1809 92.1787 12.9423C93.2015 14.7062 93.7142 16.6526 93.7142 18.7868C93.7142 20.921 93.2015 22.8595 92.1787 24.6341C91.1533 26.4086 89.7579 27.8103 87.9925 28.839C86.2244 29.8704 84.2767 30.3835 82.1413 30.3835C80.0059 30.3835 78.0423 29.8678 76.2742 28.839ZM85.7276 25.2529C86.827 24.5944 87.7018 23.6979 88.3545 22.5607C89.0073 21.4235 89.3324 20.1726 89.3324 18.8027C89.3324 17.4328 89.0073 16.1634 88.3545 15.0289C87.7018 13.8917 86.8244 12.9978 85.7197 12.3446C84.615 11.6914 83.423 11.3661 82.1386 11.3661C80.8542 11.3661 79.6597 11.6914 78.5576 12.3446C77.4529 12.9978 76.5755 13.8917 75.9227 15.0289C75.2699 16.166 74.9449 17.4249 74.9449 18.8027C74.9449 20.1806 75.2699 21.4262 75.9227 22.5607C76.5755 23.6979 77.4529 24.5944 78.5576 25.2529C79.6623 25.9114 80.8542 26.2394 82.1386 26.2394C83.423 26.2394 84.6308 25.9114 85.7276 25.2529Z" fill="#D1EAFD"/>
<path d="M101.097 29.4347H98.5229C98.1318 29.4347 97.9336 29.239 97.9336 28.8449V8.75381C97.9336 8.36241 98.1292 8.16406 98.5229 8.16406H101.097C101.488 8.16406 101.686 8.35976 101.686 8.75381V28.8449C101.686 29.2363 101.491 29.4347 101.097 29.4347Z" fill="#D1EAFD"/>
<path d="M123.79 13.1246V28.95C123.79 29.2753 123.526 29.5398 123.201 29.5398H121.097C120.753 29.5398 120.542 29.3678 120.465 29.024L120.259 27.4055C119.633 28.1804 118.872 28.7913 117.979 29.2383C117.085 29.6852 116.07 29.9074 114.934 29.9074C113.295 29.9074 111.81 29.4974 110.47 28.6776C109.133 27.8578 108.076 26.747 107.302 25.3454C106.527 23.9438 106.139 22.3967 106.139 20.7094C106.139 19.0221 106.527 17.4909 107.302 16.0893C108.076 14.6876 109.136 13.5769 110.478 12.7623C111.821 11.9478 113.306 11.5405 114.934 11.5405C116.092 11.5405 117.114 11.76 118.008 12.2017C118.901 12.6433 119.659 13.2569 120.286 14.0423C120.286 14.0423 122.096 13.1802 123.137 12.7068C123.441 12.5693 123.787 12.7914 123.787 13.1246H123.79ZM117.68 25.5728C118.478 25.0968 119.107 24.4409 119.562 23.6C120.016 22.7616 120.246 21.8175 120.246 20.7676C120.246 19.7177 120.021 18.7656 119.569 17.9114C119.118 17.0572 118.496 16.3855 117.701 15.8962C116.906 15.4069 116.015 15.161 115.024 15.161C114.033 15.161 113.166 15.4043 112.392 15.8883C111.617 16.3749 111.012 17.044 110.576 17.8982C110.14 18.7524 109.921 19.7071 109.921 20.7676C109.921 21.8281 110.135 22.7748 110.56 23.6079C110.986 24.4409 111.588 25.0968 112.363 25.5728C113.137 26.0489 114.014 26.2869 114.995 26.2869C115.975 26.2869 116.879 26.0489 117.68 25.5728Z" fill="#D1EAFD"/>
<path d="M131.222 29.1115C130.086 28.6592 129.042 28.0272 128.091 27.2126C127.935 27.0857 127.855 26.9429 127.855 26.7869C127.855 26.6599 127.908 26.5277 128.017 26.3902L129.238 24.8298C129.375 24.6632 129.518 24.5786 129.663 24.5786C129.772 24.5786 129.904 24.6315 130.06 24.7399C130.726 25.2212 131.481 25.6153 132.324 25.9247C133.168 26.2341 133.992 26.3875 134.796 26.3875C135.599 26.3875 136.183 26.2024 136.664 25.8348C137.145 25.4672 137.385 24.9832 137.385 24.3855C137.385 23.9836 137.264 23.6424 137.018 23.3621C136.772 23.0818 136.397 22.8305 135.892 22.6031C135.388 22.3783 134.679 22.1218 133.767 21.8388C132.258 21.368 131.027 20.7122 130.075 19.8738C129.124 19.0355 128.648 17.8983 128.648 16.4676C128.648 15.5737 128.873 14.738 129.325 13.9578C129.777 13.1777 130.459 12.5509 131.376 12.0749C132.293 11.5989 133.419 11.3608 134.751 11.3608C135.691 11.3608 136.656 11.5407 137.647 11.8977C138.638 12.2547 139.5 12.7731 140.234 13.4501C140.372 13.577 140.441 13.7145 140.441 13.8626C140.441 14.0107 140.377 14.1483 140.25 14.2752L138.691 15.8937C138.554 16.0312 138.411 16.1 138.266 16.1C138.157 16.1 138.025 16.0471 137.869 15.9387C137.428 15.6054 136.92 15.333 136.347 15.1215C135.773 14.9099 135.197 14.8041 134.618 14.8041C133.863 14.8041 133.284 14.9707 132.877 15.304C132.47 15.6372 132.266 16.0603 132.266 16.5707C132.266 16.9145 132.377 17.2134 132.597 17.4672C132.816 17.7238 133.175 17.9671 133.67 18.2024C134.164 18.4378 134.843 18.6891 135.707 18.9535C136.804 19.2973 137.737 19.6861 138.501 20.1224C139.265 20.5588 139.872 21.1195 140.324 21.8071C140.776 22.4946 141.001 23.3383 141.001 24.3379C141.001 25.3376 140.755 26.1812 140.266 27.0169C139.775 27.85 139.066 28.5217 138.141 29.0268C137.214 29.532 136.133 29.7858 134.899 29.7858C133.585 29.7858 132.359 29.561 131.222 29.1088V29.1115Z" fill="#D1EAFD"/>
<path d="M71.5645 37.3589H72.4842V42.5344H71.5645V37.3589Z" fill="#D1EAFD"/>
<path d="M74.5547 37.3589H75.7757L78.178 41.2332H78.1938V37.3589H79.1136V42.5344H77.9454L75.4902 38.5357H75.477V42.5344H74.5573V37.3589H74.5547Z" fill="#D1EAFD"/>
<path d="M82.2244 38.1628H80.6387V37.3589H84.7298V38.1628H83.1441V42.5344H82.2244V38.1628Z" fill="#D1EAFD"/>
<path d="M86.2559 37.3589H89.681V38.1628H87.1756V39.4799H89.5488V40.2547H87.1756V41.7172H89.8131V42.537H86.2559V37.3615V37.3589Z" fill="#D1EAFD"/>
<path d="M91.6367 37.3589H93.4338C93.677 37.3589 93.9122 37.3853 94.1421 37.4356C94.372 37.4858 94.5729 37.5705 94.7526 37.6868C94.9323 37.8032 95.0724 37.9566 95.1807 38.147C95.2891 38.3374 95.342 38.5675 95.342 38.8425C95.342 39.218 95.2362 39.5222 95.0248 39.7602C94.8134 39.9956 94.5253 40.1569 94.158 40.2389L95.5375 42.5344H94.4275L93.2303 40.342H92.5591V42.5344H91.6394V37.3589H91.6367ZM93.3096 39.5883C93.4418 39.5883 93.5713 39.5777 93.7034 39.5592C93.8355 39.5407 93.9518 39.5037 94.0575 39.4508C94.1633 39.3979 94.2478 39.3212 94.3165 39.2207C94.3852 39.1202 94.4196 38.9933 94.4196 38.8372C94.4196 38.6971 94.3879 38.5807 94.3245 38.4908C94.261 38.4009 94.1817 38.3295 94.084 38.2739C93.9862 38.221 93.8752 38.184 93.751 38.1655C93.6268 38.147 93.5052 38.1364 93.3889 38.1364H92.5564V39.5909H93.3096V39.5883Z" fill="#D1EAFD"/>
<path d="M97.1641 37.3589H98.385L100.787 41.2332H100.803V37.3589H101.723V42.5344H100.555L98.0996 38.5357H98.0838V42.5344H97.1641V37.3589Z" fill="#D1EAFD"/>
<path d="M105.405 37.3589H106.201L108.429 42.5344H107.377L106.896 41.3496H104.655L104.187 42.5344H103.156L105.405 37.3589ZM106.573 40.5615L105.778 38.4564L104.967 40.5615H106.573Z" fill="#D1EAFD"/>
<path d="M110.476 38.1628H108.891V37.3589H112.982V38.1628H111.396V42.5344H110.476V38.1628Z" fill="#D1EAFD"/>
<path d="M114.504 37.3589H115.424V42.5344H114.504V37.3589Z" fill="#D1EAFD"/>
<path d="M117.248 39.9313C117.248 39.5161 117.317 39.1432 117.457 38.8099C117.597 38.4767 117.787 38.1911 118.033 37.9584C118.279 37.7257 118.572 37.5432 118.91 37.4162C119.249 37.2893 119.619 37.2258 120.018 37.2258C120.417 37.2258 120.795 37.2893 121.136 37.4162C121.477 37.5432 121.77 37.723 122.018 37.9584C122.267 38.1911 122.46 38.4767 122.6 38.8099C122.737 39.1432 122.809 39.5187 122.809 39.9313C122.809 40.3438 122.74 40.7061 122.6 41.0394C122.46 41.3726 122.267 41.6608 122.018 41.9015C121.77 42.1422 121.474 42.3299 121.136 42.4648C120.795 42.5997 120.422 42.6658 120.018 42.6658C119.613 42.6658 119.249 42.5997 118.91 42.4648C118.572 42.3299 118.279 42.1422 118.033 41.9015C117.787 41.6608 117.594 41.3726 117.457 41.0394C117.317 40.7061 117.248 40.3359 117.248 39.9313ZM118.25 39.9313C118.25 40.2089 118.292 40.4628 118.377 40.6956C118.461 40.9283 118.583 41.1293 118.741 41.2985C118.9 41.4704 119.087 41.6027 119.304 41.6979C119.521 41.7931 119.761 41.8407 120.023 41.8407C120.285 41.8407 120.528 41.7931 120.747 41.6979C120.966 41.6027 121.154 41.4704 121.313 41.2985C121.471 41.1293 121.593 40.9283 121.677 40.6956C121.762 40.4655 121.804 40.2089 121.804 39.9313C121.804 39.6536 121.762 39.4156 121.677 39.1855C121.593 38.9554 121.471 38.7571 121.315 38.5852C121.159 38.4159 120.972 38.281 120.752 38.1832C120.533 38.0853 120.29 38.0377 120.023 38.0377C119.756 38.0377 119.513 38.0853 119.296 38.1832C119.08 38.281 118.895 38.4159 118.739 38.5852C118.583 38.7571 118.461 38.9554 118.377 39.1855C118.292 39.4156 118.25 39.6642 118.25 39.9313Z" fill="#D1EAFD"/>
<path d="M124.625 37.3589H125.846L128.248 41.2332H128.264V37.3589H129.184V42.5344H128.016L125.561 38.5357H125.545V42.5344H124.625V37.3589Z" fill="#D1EAFD"/>
<path d="M132.87 37.3589H133.666L135.894 42.5344H134.842L134.361 41.3496H132.12L131.652 42.5344H130.621L132.87 37.3589ZM134.038 40.5615L133.243 38.4564L132.431 40.5615H134.038Z" fill="#D1EAFD"/>
<path d="M137.336 37.3589H138.256V41.7146H140.454V42.5344H137.336V37.3589Z" fill="#D1EAFD"/>
<path d="M74.196 47.2192C74.0982 47.0923 73.9607 46.9865 73.7837 46.9019C73.6066 46.8173 73.4269 46.775 73.2472 46.775C73.1388 46.775 73.0331 46.7882 72.9248 46.8146C72.8164 46.8411 72.7213 46.8834 72.6314 46.9389C72.5442 46.9945 72.4728 47.0685 72.4173 47.1584C72.3618 47.2483 72.3328 47.3568 72.3328 47.4837C72.3328 47.6001 72.3565 47.7006 72.4068 47.7825C72.457 47.8645 72.523 47.9359 72.6076 47.9941C72.6922 48.0523 72.7953 48.1025 72.9168 48.1475C73.0384 48.1925 73.1732 48.2348 73.3185 48.2797C73.485 48.3326 73.6568 48.3935 73.8339 48.4622C74.011 48.531 74.1748 48.6209 74.3228 48.732C74.4708 48.843 74.5924 48.9858 74.6875 49.1551C74.7827 49.327 74.8302 49.5386 74.8302 49.7898C74.8302 50.0675 74.78 50.3108 74.6769 50.5171C74.5739 50.7234 74.4391 50.8953 74.2673 51.0328C74.0982 51.1703 73.8973 51.2708 73.6674 51.3396C73.4375 51.4083 73.197 51.4427 72.9433 51.4427C72.6076 51.4427 72.2773 51.3819 71.9575 51.2549C71.6377 51.1306 71.3734 50.9455 71.1699 50.7022L71.828 50.0887C71.9548 50.2632 72.124 50.4034 72.3354 50.5065C72.5468 50.6096 72.7556 50.6599 72.9591 50.6599C73.0675 50.6599 73.1758 50.6467 73.2868 50.6202C73.3978 50.5938 73.4982 50.5488 73.5907 50.4853C73.6806 50.4219 73.7546 50.3425 73.8101 50.2473C73.8656 50.1521 73.8947 50.0331 73.8947 49.893C73.8947 49.7528 73.863 49.6444 73.7995 49.5518C73.7361 49.4619 73.6515 49.3825 73.5432 49.3191C73.4348 49.253 73.3106 49.1948 73.1626 49.1472C73.0173 49.0996 72.864 49.0467 72.7028 48.9938C72.5468 48.9462 72.3909 48.8854 72.235 48.8192C72.0791 48.7505 71.939 48.6606 71.8148 48.5495C71.6906 48.4384 71.5901 48.3009 71.5108 48.1369C71.4342 47.973 71.3946 47.7693 71.3946 47.526C71.3946 47.2642 71.4501 47.0368 71.5584 46.8464C71.6668 46.6559 71.8121 46.4999 71.9892 46.3756C72.1663 46.2513 72.3698 46.1588 72.5944 46.0979C72.8217 46.0371 73.0516 46.0054 73.2842 46.0054C73.5458 46.0054 73.8127 46.053 74.085 46.1429C74.3545 46.2355 74.5897 46.3756 74.7906 46.5607L74.1907 47.2192H74.196Z" fill="#D1EAFD"/>
<path d="M76.6758 46.1384H80.1009V46.9424H77.5955V48.2594H79.9687V49.0343H77.5955V50.4967H80.233V51.3166H76.6758V46.1411V46.1384Z" fill="#D1EAFD"/>
<path d="M82.0605 46.1384H83.8577C84.1008 46.1384 84.336 46.1649 84.5659 46.2151C84.7959 46.2654 84.9967 46.35 85.1764 46.4664C85.3535 46.5827 85.4962 46.7361 85.6046 46.9265C85.7103 47.1169 85.7658 47.347 85.7658 47.6221C85.7658 47.9976 85.6601 48.3044 85.4486 48.5397C85.2372 48.7751 84.9492 48.9364 84.5818 49.0184L85.9614 51.3139H84.8514L83.6542 49.1215H82.9829V51.3139H82.0632V46.1384H82.0605ZM83.7334 48.3678C83.8656 48.3678 83.9977 48.3573 84.1272 48.3387C84.2594 48.3202 84.3757 48.2832 84.4814 48.2303C84.5871 48.1774 84.6717 48.1007 84.7404 48.0002C84.8091 47.8997 84.8434 47.7728 84.8434 47.6168C84.8434 47.4766 84.8117 47.3602 84.7483 47.2703C84.6849 47.1804 84.6056 47.109 84.5078 47.0535C84.41 47.0006 84.299 46.9635 84.1748 46.945C84.0506 46.9265 83.929 46.9159 83.8127 46.9159H82.9803V48.3705H83.7334V48.3678Z" fill="#D1EAFD"/>
<path d="M86.8574 46.1384H87.8881L89.3126 50.1212H89.3417L90.782 46.1384H91.7757L89.7011 51.3139H88.9056L86.8601 46.1384H86.8574Z" fill="#D1EAFD"/>
<path d="M93.1973 46.1384H94.117V51.3139H93.1973V46.1384Z" fill="#D1EAFD"/>
<path d="M99.9201 47.3521C99.7827 47.167 99.6056 47.0321 99.3863 46.9475C99.1669 46.8628 98.9528 46.8205 98.7441 46.8205C98.4771 46.8205 98.234 46.8681 98.0146 46.966C97.7953 47.0638 97.6076 47.1987 97.4491 47.368C97.2905 47.5399 97.1689 47.7382 97.0844 47.9683C96.9998 48.1984 96.9575 48.447 96.9575 48.7141C96.9575 48.997 96.9998 49.2562 97.0817 49.4889C97.1636 49.7217 97.2826 49.9227 97.4359 50.0919C97.5892 50.2612 97.7741 50.3907 97.9882 50.4833C98.2023 50.5759 98.4428 50.6235 98.7123 50.6235C98.9819 50.6235 99.2356 50.5679 99.4497 50.4595C99.6638 50.3511 99.8355 50.2056 99.9677 50.0258L100.705 50.5441C100.475 50.8324 100.195 51.0545 99.8646 51.2132C99.5343 51.3719 99.1458 51.4512 98.7044 51.4512C98.3001 51.4512 97.9301 51.3851 97.5918 51.2502C97.2535 51.1154 96.9628 50.9276 96.7197 50.6869C96.4765 50.4463 96.2862 50.158 96.1488 49.8248C96.0114 49.4916 95.9453 49.1213 95.9453 48.7167C95.9453 48.3121 96.0167 47.9286 96.162 47.5954C96.3074 47.2622 96.5029 46.9766 96.754 46.7438C97.0051 46.5111 97.3011 46.3286 97.642 46.2043C97.9829 46.08 98.3529 46.0139 98.752 46.0139C98.9185 46.0139 99.0903 46.0298 99.27 46.0615C99.4497 46.0933 99.6241 46.1409 99.788 46.207C99.9545 46.2731 100.11 46.3551 100.256 46.4529C100.401 46.5508 100.525 46.6671 100.628 46.8047L99.928 47.36L99.9201 47.3521Z" fill="#D1EAFD"/>
<path d="M102.195 46.1384H105.62V46.9424H103.115V48.2594H105.488V49.0343H103.115V50.4967H105.753V51.3166H102.195V46.1411V46.1384Z" fill="#D1EAFD"/>
<path d="M110.209 47.2192C110.111 47.0923 109.974 46.9865 109.797 46.9019C109.62 46.8173 109.44 46.775 109.26 46.775C109.152 46.775 109.046 46.7882 108.938 46.8146C108.829 46.8411 108.734 46.8834 108.644 46.9389C108.555 46.9945 108.486 47.0685 108.428 47.1584C108.372 47.2483 108.343 47.3568 108.343 47.4837C108.343 47.6001 108.367 47.7006 108.417 47.7825C108.465 47.8645 108.533 47.9359 108.618 47.9941C108.703 48.0523 108.806 48.1025 108.927 48.1475C109.049 48.1925 109.184 48.2348 109.329 48.2797C109.495 48.3326 109.667 48.3935 109.844 48.4622C110.021 48.531 110.185 48.6209 110.333 48.732C110.481 48.843 110.603 48.9858 110.698 49.1551C110.793 49.327 110.841 49.5386 110.841 49.7898C110.841 50.0675 110.79 50.3108 110.687 50.5171C110.584 50.7234 110.45 50.8953 110.278 51.0328C110.109 51.1703 109.908 51.2708 109.678 51.3396C109.448 51.4083 109.207 51.4427 108.954 51.4427C108.618 51.4427 108.288 51.3819 107.968 51.2549C107.646 51.1306 107.384 50.9455 107.178 50.7022L107.836 50.0887C107.963 50.2632 108.132 50.4034 108.343 50.5065C108.555 50.6096 108.763 50.6599 108.967 50.6599C109.075 50.6599 109.184 50.6467 109.295 50.6202C109.406 50.5938 109.509 50.5488 109.599 50.4853C109.688 50.4219 109.762 50.3425 109.818 50.2473C109.873 50.1521 109.902 50.0331 109.902 49.893C109.902 49.7528 109.871 49.6444 109.807 49.5518C109.744 49.4619 109.659 49.3825 109.551 49.3191C109.445 49.253 109.318 49.1948 109.17 49.1472C109.025 49.0996 108.872 49.0467 108.711 48.9938C108.555 48.9462 108.399 48.8854 108.243 48.8192C108.087 48.7505 107.947 48.6606 107.823 48.5495C107.698 48.4384 107.598 48.3009 107.519 48.1369C107.442 47.973 107.402 47.7693 107.402 47.526C107.402 47.2642 107.458 47.0368 107.566 46.8464C107.677 46.6559 107.82 46.4999 107.997 46.3756C108.174 46.2513 108.378 46.1588 108.602 46.0979C108.829 46.0371 109.059 46.0054 109.292 46.0054C109.556 46.0054 109.821 46.053 110.093 46.1429C110.362 46.2355 110.598 46.3756 110.798 46.5607L110.198 47.2192H110.209Z" fill="#D1EAFD"/>
<path d="M21.9401 3.24391L26.3136 0.587364C26.9592 0.194975 27.6849 0 28.413 0C29.1411 0 29.8668 0.194975 30.5123 0.587364L34.8858 3.24391C35.6042 3.68017 35.6042 4.72817 34.8858 5.16443L30.5123 7.82098C29.8668 8.21337 29.1411 8.40834 28.413 8.40834C27.6849 8.40834 26.9592 8.21337 26.3136 7.82098L21.9401 5.16443C21.2218 4.72817 21.2218 3.68017 21.9401 3.24391ZM9.87549 7.74055L11.9943 9.02739C13.0185 9.64888 14.3024 9.64888 15.3266 9.02739L17.4453 7.74055C17.9089 7.46027 17.9089 6.78517 17.4453 6.50245L15.3266 5.21561C14.3024 4.59412 13.0185 4.59412 11.9943 5.21561L9.87549 6.50245C9.41193 6.78273 9.41193 7.45783 9.87549 7.74055ZM3.66964 15.9539L5.62095 17.1384C6.69854 17.7916 8.04796 17.7916 9.12555 17.1384L10.3852 16.3731C11.1764 15.893 12.169 15.893 12.9602 16.3731L17.5012 19.132C19.1539 20.1362 21.2266 20.1362 22.8818 19.132L27.1825 16.5193C27.5611 16.2902 27.9858 16.1733 28.413 16.1635C28.8401 16.1733 29.2649 16.2902 29.6435 16.5193L33.9441 19.132C35.5969 20.1362 37.6696 20.1362 39.3248 19.132L43.8657 16.3731C44.6569 15.893 45.6496 15.893 46.4408 16.3731L47.7004 17.1384C48.778 17.7916 50.1274 17.7916 51.205 17.1384L53.1563 15.9539C53.6587 15.6493 53.6587 14.9181 53.1563 14.6135L51.205 13.429C50.1274 12.7758 48.778 12.7758 47.7004 13.429L46.4408 14.1943C45.6496 14.6744 44.6569 14.6744 43.8657 14.1943L39.3248 11.4353C37.672 10.4312 35.5993 10.4312 33.9441 11.4353L29.6435 14.048C29.2649 14.2771 28.8401 14.3941 28.413 14.4039C27.9858 14.3941 27.5611 14.2771 27.1825 14.048L22.8818 11.4353C21.229 10.4312 19.1564 10.4312 17.5012 11.4353L12.9602 14.1943C12.169 14.6744 11.1764 14.6744 10.3852 14.1943L9.12555 13.429C8.04796 12.7758 6.69854 12.7758 5.62095 13.429L3.66964 14.6135C3.16724 14.9181 3.16724 15.6493 3.66964 15.9539ZM39.3806 7.74055L41.4994 9.02739C42.5236 9.64888 43.8075 9.64888 44.8317 9.02739L46.9505 7.74055C47.414 7.46027 47.414 6.78517 46.9505 6.50245L44.8317 5.21561C43.8075 4.59412 42.5236 4.59412 41.4994 5.21561L39.3806 6.50245C38.9171 6.78273 38.9171 7.45783 39.3806 7.74055ZM56.3818 26.7678L51.4331 23.7603C49.7367 22.7293 47.613 22.7293 45.9165 23.7603L42.6547 25.7417C41.1693 26.6459 39.3054 26.6459 37.8201 25.7417L32.7767 22.6782C31.4346 21.8617 29.9274 21.4474 28.4154 21.423C26.9034 21.4474 25.3962 21.8641 24.0541 22.6782L19.0107 25.7417C17.5254 26.6459 15.6615 26.6459 14.1761 25.7417L10.9143 23.7603C9.21777 22.7293 7.09414 22.7293 5.39767 23.7603L0.448996 26.7678C0.150474 26.9506 0 27.2577 0 27.5672C0 27.8767 0.150474 28.1862 0.448996 28.3666L5.39767 31.3741C7.09414 32.405 9.21777 32.405 10.9143 31.3741L14.1761 29.3926C15.6615 28.4884 17.5254 28.4884 19.0107 29.3926L24.0541 32.4562C25.3962 33.2727 26.9034 33.687 28.4154 33.7114C29.9274 33.687 31.4346 33.2702 32.7767 32.4562L37.8201 29.3926C39.3054 28.4884 41.1693 28.4884 42.6547 29.3926L45.9165 31.3741C47.613 32.405 49.7367 32.405 51.4331 31.3741L56.3818 28.3666C56.6803 28.1838 56.8308 27.8767 56.8308 27.5672C56.8308 27.2577 56.6803 26.9481 56.3818 26.7678ZM34.8858 49.9699L30.5123 47.3134C29.8668 46.921 29.1411 46.726 28.413 46.726C27.6849 46.726 26.9592 46.921 26.3136 47.3134L21.9401 49.9699C21.2218 50.4062 21.2218 51.4542 21.9401 51.8904L26.3136 54.547C26.9592 54.9394 27.6849 55.1344 28.413 55.1344C29.1411 55.1344 29.8668 54.9394 30.5123 54.547L34.8858 51.8904C35.6042 51.4542 35.6042 50.4062 34.8858 49.9699ZM46.9505 47.3914L44.8317 46.1045C43.8075 45.483 42.5236 45.483 41.4994 46.1045L39.3806 47.3914C38.9171 47.6716 38.9171 48.3467 39.3806 48.6295L41.4994 49.9163C42.5236 50.5378 43.8075 50.5378 44.8317 49.9163L46.9505 48.6295C47.414 48.3492 47.414 47.6741 46.9505 47.3914ZM53.1563 39.178L51.205 37.9935C50.1274 37.3403 48.778 37.3403 47.7004 37.9935L46.4408 38.7588C45.6496 39.2389 44.6569 39.2389 43.8657 38.7588L39.3248 35.9999C37.672 34.9958 35.5993 34.9958 33.9441 35.9999L29.6435 38.6126C29.2649 38.8417 28.8401 38.9586 28.413 38.9684C27.9858 38.9586 27.5611 38.8417 27.1825 38.6126L22.8818 35.9999C21.229 34.9958 19.1564 34.9958 17.5012 35.9999L12.9602 38.7588C12.169 39.2389 11.1764 39.2389 10.3852 38.7588L9.12555 37.9935C8.04796 37.3403 6.69854 37.3403 5.62095 37.9935L3.66964 39.178C3.16724 39.4827 3.16724 40.2138 3.66964 40.5185L5.62095 41.7029C6.69854 42.3561 8.04796 42.3561 9.12555 41.7029L10.3852 40.9377C11.1764 40.4575 12.169 40.4575 12.9602 40.9377L17.5012 43.6966C19.1539 44.7007 21.2266 44.7007 22.8818 43.6966L27.1825 41.0839C27.5611 40.8548 27.9858 40.7378 28.413 40.7281C28.8401 40.7378 29.2649 40.8548 29.6435 41.0839L33.9441 43.6966C35.5969 44.7007 37.6696 44.7007 39.3248 43.6966L43.8657 40.9377C44.6569 40.4575 45.6496 40.4575 46.4408 40.9377L47.7004 41.7029C48.778 42.3561 50.1274 42.3561 51.205 41.7029L53.1563 40.5185C53.6587 40.2138 53.6587 39.4827 53.1563 39.178ZM17.4478 47.3914L15.329 46.1045C14.3048 45.483 13.0209 45.483 11.9967 46.1045L9.87792 47.3914C9.41436 47.6716 9.41436 48.3467 9.87792 48.6295L11.9967 49.9163C13.0209 50.5378 14.3048 50.5378 15.329 49.9163L17.4478 48.6295C17.9113 48.3492 17.9113 47.6741 17.4478 47.3914Z" fill="#D1EAFD"/>
</svg>
